<?xml version="1.0" encoding="utf-8"?>
<!-- Generator: Adobe Illustrator 26.0.3, SVG Export Plug-In . SVG Version: 6.00 Build 0)  -->
<svg version="1.1" id="Layer_1" xmlns="http://www.w3.org/2000/svg" xmlns:xlink="http://www.w3.org/1999/xlink" x="0px" y="0px"
	 viewBox="0 0 612 792" style="enable-background:new 0 0 612 792;" xml:space="preserve">
<style type="text/css">
	.st0{fill:none;}
	.st1{fill:none;stroke:#231F20;stroke-width:0.4543;stroke-miterlimit:2.6131;}
	.st2{fill:none;stroke:#231F20;stroke-width:0.4623;stroke-miterlimit:2.6131;}
	.st3{fill:#FFFFFF;stroke:#000000;stroke-width:0.3485;}
	.st4{fill:url(#SVGID_00000183952267002187336030000001489941856555104659_);}
	.st5{opacity:0.3;enable-background:new    ;}
	.st6{fill:url(#SVGID_00000153690789027564265620000002809363130843702671_);}
	.st7{fill:#080707;}
	.st8{fill:none;stroke:#000000;stroke-width:0.1742;}
	.st9{fill:#FFFFFF;}
	.st10{fill:#FFFFFF;stroke:#221F1F;stroke-width:0.315;stroke-dasharray:1.26,0.63;}
	.st11{fill:none;stroke:#221F1F;stroke-width:0.315;}
	.st12{fill:none;stroke:#221F1F;stroke-width:0.315;stroke-dasharray:1.26,0.63;}
	.st13{fill:none;stroke:#1D2321;stroke-width:0.3959;stroke-linecap:round;stroke-dasharray:1.1404,1.1404;}
	.st14{fill:none;stroke:#111110;stroke-width:0.3023;stroke-linecap:round;stroke-dasharray:0.8705,0.8705;}
	.st15{fill:none;stroke:#000000;stroke-width:0.8145;stroke-miterlimit:3.8637;}
	.st16{fill:none;stroke:#111110;stroke-width:0.3063;stroke-linecap:round;stroke-dasharray:0.8824,0.8824;}
	.st17{fill:#FFFFFF;stroke:#000000;stroke-width:0.1246;}
	.st18{fill:none;stroke:#000000;stroke-width:7.413167e-02;stroke-dasharray:0.4446,0.4446;}
	.st19{fill:none;stroke:#000000;stroke-width:6.714857e-02;stroke-dasharray:0.4017,0.4017;}
	.st20{fill:none;stroke:#000000;stroke-width:0.1153;}
	.st21{fill:none;stroke:#231F20;stroke-width:0.8167;stroke-linejoin:round;}
	.st22{fill:#999999;stroke:#000000;stroke-width:0.5;}
	.st23{fill:#999999;}
	
		.st24{clip-path:url(#SVGID_00000003797379481347452710000007373481493603263385_);fill:#999999;stroke:#231F20;stroke-width:0.4634;stroke-linejoin:round;stroke-miterlimit:10;}
	.st25{fill:none;stroke:#231F20;stroke-width:0.3485;}
	.st26{fill:none;stroke:#231F20;stroke-width:0.6969;}
</style>
<pattern  y="792" width="4" height="7.8" patternUnits="userSpaceOnUse" id="SVGID_0000013713123128961413990" viewBox="0 -7.8 4 7.8" style="overflow:visible;">
	<g>
		<rect y="-7.8" class="st0" width="4" height="7.8"/>
		<g>
			<rect y="-7.8" class="st0" width="4" height="7.8"/>
			<g>
				<g>
					<g>
						<polyline class="st1" points="3.7,-7.8 3.7,0 3.7,-0.3 						"/>
						<line class="st2" x1="2.5" y1="-7.8" x2="2.5" y2="0"/>
					</g>
				</g>
			</g>
		</g>
	</g>
</pattern>
<pattern  y="792" width="4" height="7.8" patternUnits="userSpaceOnUse" id="SVGID_1_" viewBox="0 -7.8 4 7.8" style="overflow:visible;">
	<g>
		<rect y="-7.8" class="st0" width="4" height="7.8"/>
		<g>
			<rect y="-7.8" class="st0" width="4" height="7.8"/>
			<g>
				<g>
					<g>
						<polyline class="st1" points="3.7,-7.8 3.7,0 3.7,-0.3 						"/>
						<line class="st2" x1="2.5" y1="-7.8" x2="2.5" y2="0"/>
					</g>
				</g>
			</g>
		</g>
	</g>
</pattern>
<path class="st3" d="M311.4,394.7c-6,0.3-23.6,4.5-23.5,5.5c1.7,6.6,3.6,18.3,3.4,23.5c0.2,0.9,0.3,1.7,0.5,2.5
	c2,0.8,7.6,4.3,7.9,4.3c5.4,0.5,8.9-1.6,17.1-2c5-0.2,10.9,0.4,11.2-5c0,0-4.2-3-9.8-4c-3.1-0.5-16.7,0.5-17.9,1.2
	c-1.2,0.7-7.9,2.2-7.1,3.5c-0.8-1.3,5.9-2.9,7.1-3.5c1.2-0.7,15.6-1.6,18.6-1c5.6,1,9.2,4.4,9.2,4.4c0.1-1.7-0.8-5.2-0.5-7.9
	c0-5.7,1.3-13.4,2.5-18.3C329.5,397.1,317.4,394.3,311.4,394.7z"/>
<pattern  id="SVGID_00000032638686939947659410000011318988408576071065_" xlink:href="#SVGID_1_" patternTransform="matrix(0.6103 0 0 -0.6103 -6556.6152 -10347.2852)">
</pattern>
<path style="fill:url(#SVGID_00000032638686939947659410000011318988408576071065_);" d="M311.4,394.7c-6,0.3-23.6,4.5-23.5,5.5
	c1.7,6.6,3.6,18.3,3.4,23.5c0.2,0.9,0.3,1.7,0.5,2.5c2,0.8,7.6,4.3,7.9,4.3c5.4,0.5,8.9-1.6,17.1-2c5-0.2,10.9,0.4,11.2-5
	c0,0-4.2-3-9.8-4c-3.1-0.5-16.7,0.5-17.9,1.2c-1.2,0.7-7.9,2.2-7.1,3.5c-0.8-1.3,5.9-2.9,7.1-3.5c1.2-0.7,15.6-1.6,18.6-1
	c5.6,1,9.2,4.4,9.2,4.4c0.1-1.7-0.8-5.2-0.5-7.9c0-5.7,1.3-13.4,2.5-18.3C329.5,397.1,317.4,394.3,311.4,394.7z"/>
<path class="st5" d="M294.1,426.8c2,0.6,7.6,3.1,7.9,3.1c5.4,0.4,8.9-1.1,17.1-1.4c5-0.2,8.4-0.1,8.7-3.9c0,0,3.1-2.7-2.5-3.4
	c-3.1-0.4-7.6-1.7-9-1.9c-14-1.5-21.6,5.2-20.8,6.2"/>
<path class="st3" d="M85.7,395.2c-2.7-0.6-23.2,0.9-27.9,2.3c-4.3,1.2-15.8,6.1-15.8,6.1c1.7,3.8,3.2,8.4,4.5,13.1
	c1.2,3.9,2.4,8.1,3.1,11.8c0.3,1.2,0.6,2.3,0.9,3.4c0.1,0.4,0.3,0.8,0.6,1.1c1.7,1.1,5.2,1.3,10.8,0.2c1.9-0.5,6.6-0.8,8.8-1.3
	c10.2-2.4,9.2-4.2,13.1-4.9c0.1,0,0.1,0,0.2,0c2.2-0.7,2.7-2.6,1.6-8c-0.8-3.9-0.9-10.6-0.9-15.5C84.4,400.1,85.7,395.2,85.7,395.2z
	"/>
<pattern  id="SVGID_00000132075769097665816070000006401018945597355701_" xlink:href="#SVGID_0000013713123128961413990" patternTransform="matrix(0.6103 0 0 -0.6103 -6556.6152 -10347.2852)">
</pattern>
<path style="fill:url(#SVGID_00000132075769097665816070000006401018945597355701_);" d="M86.5,395.2c-2.7-0.6-23.2,0.9-27.9,2.3
	c-4.3,1.2-15.8,6.1-15.8,6.1c1.7,3.8,3.2,8.4,4.5,13.1c1.2,3.9,2.4,8.1,3.1,11.8c0.3,1.2,0.6,2.3,0.9,3.4c0.1,0.4,0.3,0.8,0.6,1.1
	c1.7,1.1,5.2,1.3,10.8,0.2c1.9-0.5,6.6-0.8,8.8-1.3c10.2-2.4,9.2-4.2,13.1-4.9c0.1,0,0.1,0,0.2,0c2.2-0.7,2.7-2.6,1.6-8
	c-0.8-3.9-0.9-10.6-0.9-15.5C85.3,400.1,86.5,395.2,86.5,395.2z M86.4,424.2c0,0-8.6-1.8-15.4-0.8c-3.7,0.6-10.6,3-13.2,4.2
	c-1.5,0.7-7.6,2.7-6.1,4.1c-1.5-1.4,4.6-3.3,6.1-4.1c2.6-1.3,9.5-3.7,13.2-4.2C77.8,422.3,86.4,424.2,86.4,424.2z"/>
<g>
	<g>
		<g>
			<path class="st7" d="M287.7,320.1c-0.6,0.1-1.3,0.3-1.9,0.2c-0.3-0.1-0.3-0.3-0.2-0.6c0.1-0.3,0.3-0.6,0.5-0.8
				c0.8-1,1.7-2,2.7-2.9c1.9-1.8,4-3.4,6.1-5c0,0,1-0.7,2.6-2s3.8-3.3,6.7-5.5c2.9-2.2,6.6-4.2,10.9-5.7c2.1-0.7,4.4-1.3,6.7-2.2
				c1.1-0.4,2.2-0.9,3.3-1.5c0.5-0.3,1-0.6,1.5-1.1c0.2-0.2,0.4-0.4,0.6-0.7c0.1-0.3,0.2-0.6,0-0.8c0.2,0.3,0.1,0.7-0.1,1
				s-0.5,0.6-0.8,0.8c-0.7,0.5-1.4,0.9-2.3,1.3c-1.7,0.8-3.6,1.4-5.5,2c-4,1.1-8.2,2.7-11.7,4.9c-3.5,2.2-6.3,4.7-8.3,6.5
				c-2.1,1.8-3.4,2.7-3.4,2.7c-2.1,1.6-4.2,3.2-6.1,5c-1,0.9-1.9,1.8-2.7,2.9c-0.2,0.3-0.4,0.6-0.5,0.9c-0.1,0.2-0.1,0.4-0.1,0.6
				c0.1,0.2,0.2,0.4,0.4,0.4c0.4,0.1,0.7,0.1,1,0c0.3,0,0.7-0.1,1-0.2c0,0,0.4-0.1,1.1-0.3c0.7-0.2,1.8-0.6,3-1.2
				c2.5-1,6-2.4,9.8-3.9s8-3.1,11.9-4.6c1.9-0.7,3.8-1.4,5.5-2c0.9-0.3,1.7-0.6,2.5-0.9c0.8-0.2,1.5-0.5,2.2-0.6
				c-0.6,0-1.2,0.2-1.8,0.4c-0.6,0.2-1.2,0.4-1.7,0.5c-1.2,0.4-2.3,0.8-3.4,1.2c-2.3,0.8-4.5,1.6-6.6,2.4c-4.3,1.6-8.2,3.1-11.5,4.4
				s-6.1,2.5-8,3.2C288.8,319.8,287.7,320.1,287.7,320.1z"/>
		</g>
	</g>
</g>
<g>
	<g>
		<g>
			<path class="st7" d="M301.3,288.7c2.4-0.2,4.8-0.6,7.1-1c0,0,0.5-0.1,1.5-0.3c0.9-0.2,2.3-0.5,3.8-1.2c3-1.3,6.6-4.2,9-7.9
				c-1.5,2.1-4.6,5.3-7.9,7.1c-1.6,0.9-3.2,1.5-4.4,1.7c-0.6,0.1-1.1,0.2-1.4,0.3c-0.3,0.1-0.5,0.1-0.5,0.1c-2.4,0.4-4.7,0.7-7.1,1
				c0,0-0.8,0.1-2,0.2s-2.9,0.2-4.8,0.1c-1.9,0-3.8-0.7-5.6-1.2c-1.8-0.5-3.5-0.9-4.8-1.3c2.2,0.6,4.3,1.3,6.2,1.9
				c1,0.3,1.9,0.6,2.9,0.7c0.9,0.1,1.8,0.2,2.7,0.2c1.6,0,3-0.1,3.9-0.1C300.8,288.8,301.3,288.7,301.3,288.7z"/>
		</g>
	</g>
</g>
<g>
	<g>
		<g>
			<path class="st7" d="M322.3,322.6c1.8,0,3.7-0.5,5.2,0.6c0,0,0.1,0,0.2,0.2c0.1,0.1,0.3,0.3,0.6,0.6c0.4,0.5,0.9,1.5,1.2,2.6
				c0.6,2.4,0.6,5.7,0.2,9.1c0.4-1.9,0.7-5.3,0.3-8.1c-0.2-1.4-0.7-2.7-1.2-3.5s-1.1-1.1-1.1-1.1c-0.8-0.6-1.7-0.8-2.6-0.7l-2.7,0.1
				c0,0-2.3,0.1-5.1,0.4c-2.8,0.3-6.1,0.5-8.1,0.4c3.4,0.3,6.7-0.1,9.2-0.2C320.7,322.7,322.3,322.6,322.3,322.6z"/>
		</g>
	</g>
</g>
<g>
	<g>
		<g>
			<path class="st7" d="M305.8,338.5c-2.1,0.2-4.2,0.5-6.3,0.7c0,0-0.5,0.1-1.3,0.2s-2,0.3-3.4,0.7c-1.4,0.4-3.1,0.8-4.7,1.8
				c-0.4,0.2-0.8,0.6-1,1c-0.3,0.4-0.4,0.9-0.3,1.4c0.3,1,1.2,1.6,2,2.1c-0.5-0.3-1-0.7-1.5-1.3c-0.2-0.3-0.4-0.6-0.4-1
				s0.1-0.8,0.3-1.1c0.5-0.6,1.3-1.1,2-1.4c0.8-0.3,1.6-0.6,2.4-0.8c1.6-0.4,3.1-0.7,4.1-0.9c1.1-0.2,1.8-0.3,1.8-0.3
				c2.1-0.3,4.2-0.5,6.3-0.7c0,0,2.7-0.3,6-0.5c1.6-0.1,3.4-0.1,5.1-0.1c0.8,0,1.6,0.1,2.4,0.2c0.7,0.1,1.4,0.3,1.8,0.7
				c-0.3-0.4-0.8-0.5-1.3-0.7c-0.5-0.1-1-0.2-1.4-0.3c-1-0.1-1.9-0.2-2.8-0.2c-1.8-0.1-3.5,0-5,0.1
				C307.7,338.3,305.8,338.5,305.8,338.5z"/>
		</g>
	</g>
</g>
<g>
	<g>
		<g>
			<path class="st7" d="M296.3,380.7c-1,0.4-2,0.7-3.1,0.8c-0.5,0-1.1-0.1-1.3-0.5c-0.2-0.4-0.1-1,0.1-1.5c0.3-1,0.9-1.9,1.5-2.8
				s1.2-1.7,1.9-2.6l0,0c0.6-0.8,1.4-1.5,2.3-2.2c0,0,0.2-0.2,0.7-0.5c0.2-0.2,0.5-0.3,0.9-0.6c0.4-0.2,0.7-0.5,1.2-0.7
				c1.8-1,4.6-2.2,8.2-2.7c1.8-0.3,3.8-0.5,5.8-0.3c2.1,0.2,4.2,0.9,6.2,2s3.8,2.7,5.4,4.5s3,3.9,4.1,6.1c-1.2-2.6-3.4-6-6.6-8.8
				c-1.6-1.4-3.5-2.6-5.6-3.3c-2.1-0.8-4.3-1-6.4-0.9s-4.1,0.5-5.8,0.9c-1.8,0.5-3.3,1.1-4.6,1.7c-1.2,0.6-2.2,1.2-2.9,1.6
				c-0.3,0.2-0.6,0.4-0.7,0.5c-0.2,0.1-0.3,0.2-0.3,0.2c-0.8,0.7-1.6,1.4-2.3,2.2l0,0c-0.7,0.8-1.3,1.7-1.9,2.6s-1.2,1.8-1.5,2.9
				c-0.2,0.5-0.3,1.1-0.1,1.7c0.3,0.6,1,0.7,1.5,0.6c1.1-0.1,2.1-0.4,3.1-0.8c0,0,1.6-0.6,4.1-1.8c2.5-1.3,5.9-2.9,9.9-4
				c2-0.5,4.1-1,6.3-1.2c1.1-0.1,2.2-0.1,3.2-0.1c1.1,0.1,2.1,0.2,3.1,0.6c0.5,0.2,0.9,0.5,1.1,1s0,1-0.4,1.3
				c-0.6,0.8-1.5,1.3-2.3,1.7c-1.6,0.9-3.3,1.4-4.6,1.9c1.2-0.4,2.4-0.8,3.5-1.3s2.2-1.1,3.2-1.9c0.4-0.4,0.9-0.9,0.8-1.6
				c-0.1-0.6-0.7-1-1.2-1.3c-1.1-0.5-2.3-0.6-3.4-0.7c-2.3-0.1-4.5,0.2-6.6,0.6s-4,1-5.7,1.6c-3.5,1.2-6.1,2.7-8,3.6
				C297.4,380.3,296.3,380.7,296.3,380.7z"/>
		</g>
	</g>
</g>
<g>
	<g>
		<g>
			<path class="st7" d="M117.5,359.5c-0.9-0.5-1.8-1-2.8-1.5c0,0-0.8-0.4-2.1-1c-1.3-0.6-3.1-1.3-5-1.7c1.1,0.4,2.9,1.1,4.4,1.7
				c1.5,0.7,2.7,1.3,2.7,1.3c0.9,0.5,1.8,1,2.8,1.5c0,0,0.3,0.2,0.8,0.5s1.1,0.7,1.8,1.1c1.4,0.9,2.9,2,3.9,2.6
				c-1.5-1.3-3.1-2.4-4.3-3.2C118.3,360,117.5,359.5,117.5,359.5z"/>
		</g>
	</g>
</g>
<g>
	<g>
		<g>
			<path class="st7" d="M171.7,417.3c-3.2-3.5-6.4-6.8-9.9-10c0,0-3-2.9-8-6.9c-2.5-2-5.5-4.2-8.8-6.6s-6.9-4.8-9.9-8
				c3.3,3.9,10.6,8.6,16.3,13.1c5.8,4.4,10.2,8.6,10.2,8.6c3.4,3.2,6.7,6.5,9.8,10c0,0,1,1.1,2.6,3c0.7,0.9,1.7,2.1,2.4,3.4
				c0.2,0.3,0.3,0.7,0.3,1.1c0,0.3-0.5,0.3-0.9,0.3c-0.8-0.2-1.6-0.5-2.5-0.9c-6.6-3.2-13.6-8.1-18.1-10.5c1.9,1,3.7,2.3,5.5,3.4
				s3.6,2.3,5.3,3.3c1.7,1.1,3.4,2,5,2.9c1.6,0.8,3.2,1.7,4.8,2c0.2,0,0.4,0,0.6,0c0.2,0,0.5-0.2,0.5-0.5c0.1-0.5-0.1-0.8-0.3-1.2
				c-0.3-0.7-0.7-1.2-1.1-1.8c-0.8-1.1-1.5-1.9-2.1-2.6C172.4,418.1,171.7,417.3,171.7,417.3z"/>
		</g>
	</g>
</g>
<g>
	<g>
		<g>
			<path class="st7" d="M175.9,350.3c-4.8-3-9.7-5.9-14.6-8.7c0,0-4.4-2.6-11.1-6.4c-6.7-3.8-15.9-8.9-25.2-13.9
				c5.4,3,14.5,8.1,22.2,12.5s14,8.1,14,8.1c4.9,2.9,9.8,5.8,14.6,8.7c0,0,1.6,1,4,2.5c2.5,1.6,5.9,3.7,9.6,6.2
				c3.7,2.5,7.7,5.2,11,8.1c0.8,0.7,1.6,1.5,2.3,2.3c0.3,0.4,0.6,0.8,0.8,1.3s0.1,1-0.3,1.2c-0.8,0.5-1.9,0.4-2.7,0.3
				c-0.9-0.1-1.7-0.2-2.5-0.3c1.3,0.2,2.6,0.4,3.9,0.4c0.3,0,0.7-0.1,1-0.2s0.6-0.3,0.8-0.6c0.1-0.3,0.1-0.7-0.1-1
				c-0.1-0.3-0.3-0.6-0.5-0.9c-0.8-1.1-1.7-1.9-2.6-2.8c-0.9-0.8-1.9-1.6-2.9-2.4c-3.9-3-7.7-5.5-10.9-7.7c-3.2-2.1-6-3.8-7.9-5
				C177,351,175.9,350.3,175.9,350.3z"/>
		</g>
	</g>
</g>
<g>
	<g>
		<g>
			<path class="st7" d="M152.6,297.6c1.9,1.4,3.7,2.9,5.4,4.6c0.8,0.8,1.6,1.7,2.3,2.7c0.3,0.5,0.6,1,0.8,1.5s0.1,1.2-0.4,1.4
				c0,0-0.2,0.1-0.7,0.2c-0.5,0-1.2-0.1-2.1-0.3c-0.9-0.3-1.9-0.7-3.1-1.3c-1.2-0.6-2.4-1.3-3.9-2.1c-2.9-1.5-6.6-2.8-10.7-3.2
				c-4.1-0.5-8.6-0.2-12.9,0.9c2.5-0.6,6-1,9.7-0.9s7.7,0.8,11.2,2.3c0.9,0.4,1.7,0.7,2.4,1.1c0.8,0.4,1.5,0.8,2.2,1.2
				c1.4,0.8,2.7,1.4,3.9,1.9c1.2,0.4,2.2,0.7,2.9,0.7s1.1-0.2,1.1-0.2c0.3-0.1,0.6-0.4,0.6-0.8c0.1-0.3,0-0.6-0.1-0.9
				c-0.2-0.6-0.5-1.1-0.8-1.6c-0.7-1-1.5-1.9-2.3-2.7C156.4,300.4,154.6,298.9,152.6,297.6c0.1-0.1-0.2-0.3-0.7-0.8
				c-0.5-0.4-1.3-1-2.2-1.8c-1.8-1.6-4.1-4.1-6.2-7.2c-2.1-3-4-6.6-5.5-10s-2.6-6.7-3.3-9.2c2.1,8.6,6.2,16.6,10.2,21.6
				c2,2.6,3.9,4.5,5.4,5.6c0.7,0.6,1.3,1.1,1.7,1.4C152.4,297.4,152.6,297.6,152.6,297.6z"/>
		</g>
	</g>
</g>
<g>
	<g>
		<g>
			<path class="st7" d="M64.8,203.7c-0.2-2-0.5-4.1-0.7-6.1c0,0-0.2-1.8-0.4-4.6c-0.1-1.4-0.2-3-0.2-4.8s0-3.7,0.4-5.5
				c-0.7,2.2-0.7,6-0.6,9.1c0.1,3.2,0.4,5.8,0.4,5.8c0.2,2,0.5,4.1,0.7,6.1c0,0,0.3,2.6,0.1,5.8c-0.1,1.6-0.2,3.3-0.6,4.9
				c-0.2,0.8-0.4,1.5-0.9,2c-0.1,0.1-0.3,0.2-0.4,0.2c-0.1,0-0.2-0.2-0.3-0.3c-0.1-0.3-0.2-0.6-0.2-0.9c0,0.2,0,0.5,0.1,0.7
				s0.2,0.5,0.4,0.6s0.5-0.1,0.6-0.3s0.3-0.4,0.4-0.6c0.4-0.8,0.6-1.7,0.8-2.6c0.3-1.7,0.4-3.4,0.4-4.8c0-1.4,0-2.6-0.1-3.4
				C64.8,204.2,64.8,203.7,64.8,203.7z"/>
		</g>
	</g>
</g>
<g>
	<g>
		<g>
			<path class="st7" d="M60,307c2.7-0.1,5.4-0.1,8.1,0c0,0,0.6,0,1.7,0.1c0.5,0,1.2,0.1,1.9,0.2c0.4,0.1,0.8,0.1,1.2,0.2
				c0.4,0.1,0.8,0.2,1.3,0.3c1.8,0.4,3.8,1.2,5.8,2.4c2,1.2,3.9,3,5.1,5.2c-0.6-1.3-1.9-2.9-3.5-4.3c-1.7-1.4-3.7-2.4-5.7-3.1
				c-0.5-0.2-1-0.3-1.5-0.4s-1-0.3-1.4-0.3c-0.9-0.1-1.7-0.3-2.4-0.3c-0.7-0.1-1.3-0.1-1.7-0.1c-0.4,0-0.6,0-0.6,0
				c-2.7-0.1-5.4-0.1-8.1,0c0,0-0.9,0-2.3,0.2c-1.4,0.1-3.3,0.4-5.4,0.9c-2,0.5-4.2,1.4-5.9,2.7c-1.8,1.2-3.1,2.8-3.9,3.9
				c1.5-2,3.5-3.6,5.5-4.7s4.1-1.7,5.9-2c1.8-0.3,3.3-0.5,4.4-0.6C59.4,307,60,307,60,307z"/>
		</g>
	</g>
</g>
<g>
	<g>
		<g>
			<path class="st7" d="M71.4,286.3c-3.2-1.2-5.8-3.7-8.6-5.7c0,0-2.5-1.8-6.4-4.6c-3.9-2.7-9.1-6.3-14.5-9.9
				c3.1,2.2,8.3,5.8,12.7,8.9s8,5.7,8,5.7c1.4,1,2.8,2.1,4.1,3.1c1.4,1.1,2.9,1.9,4.5,2.6c0,0,0.2,0.1,0.7,0.3
				c0.5,0.2,1.2,0.4,2,0.6c1.7,0.4,4.2,0.7,6.9,0.4c1.3-0.1,2.7-0.4,4.1-0.8c0.7-0.2,1.4-0.4,2-0.7c0.3-0.2,0.6-0.3,0.9-0.6
				c0.3-0.2,0.4-0.7,0.2-1.1c-0.4-0.6-1.1-0.9-1.7-1.1s-1.2-0.3-1.9-0.4c-1.2-0.1-2.4,0-3.2,0.5c0.7-0.5,1.5-0.5,2.3-0.5
				s1.6,0.2,2.3,0.4c0.7,0.2,1.5,0.6,1.9,1.2c0.1,0.2,0.1,0.3,0,0.5s-0.2,0.3-0.3,0.4c-0.3,0.2-0.6,0.4-1,0.5
				c-2.8,1-5.6,1.4-7.9,1.5c-2.3,0-4.3-0.3-5.6-0.7C72.1,286.6,71.4,286.3,71.4,286.3z"/>
		</g>
	</g>
</g>
<g>
	<g>
		<g>
			<path class="st7" d="M57.2,292.3c1.3-0.6,2.7-0.6,4-0.5c1.4,0.1,2.7,0.4,4.1,0.6c0,0,0.6,0.1,1.7,0.2c0.5,0.1,1.2,0.1,2,0.3
				c0.7,0.1,1.6,0.3,2.5,0.6c1.8,0.5,3.8,1.5,5.6,3.1c1.7,1.7,3.1,3.9,3.6,6.5c-0.2-1.5-0.9-3.5-2.3-5.3c-1.3-1.8-3.3-3.2-5.3-4.1
				s-4-1.2-5.4-1.3c-1.4-0.2-2.3-0.3-2.3-0.3c-1.4-0.2-2.7-0.4-4.1-0.6c-1.4-0.1-2.9-0.1-4.1,0.5c0,0-0.2,0.1-0.6,0.2
				c-0.4,0.2-0.9,0.4-1.5,0.8c-1.2,0.7-2.9,1.8-4.7,2.9s-3.9,2.3-5.9,3c-1,0.4-2,0.7-3,0.7c-0.5,0-1,0-1.3-0.2
				c-0.1-0.1,0-0.3,0.1-0.5c0.2-0.1,0.3-0.2,0.5-0.3c-0.3,0.1-0.6,0.3-0.7,0.6c0,0.2,0.1,0.3,0.2,0.3c0.1,0.1,0.3,0.1,0.5,0.1
				c0.6,0.1,1.3,0,1.9-0.1c1.2-0.3,2.4-0.7,3.5-1.2c2.2-1,4.1-2.1,5.7-3.2c1.6-1,2.9-1.8,3.9-2.4C56.6,292.5,57.2,292.3,57.2,292.3z
				"/>
		</g>
	</g>
</g>
<g>
	<g>
		<g>
			<path class="st7" d="M53.4,285c-1.6,0-3.2,0-4.8,0.1c0,0-1.5,0-3.7,0.2s-5.2,0.5-8.1,1.3c1.7-0.4,4.6-0.8,7.1-1s4.6-0.3,4.6-0.3
				c1.6,0,3.2-0.1,4.8-0.1c0,0,0.5,0,1.3,0s2,0.1,3.2,0.2s2.6,0.3,3.8,0.6c1.2,0.3,2.4,0.7,2.9,1.4c-0.5-0.6-1.2-0.9-1.9-1.2
				c-0.7-0.3-1.4-0.5-2.1-0.6c-1.4-0.3-2.7-0.5-3.8-0.6C54.9,284.9,53.4,285,53.4,285z"/>
		</g>
	</g>
</g>
<g>
	<g>
		<g>
			<path class="st7" d="M47.9,331.8c1.9-0.8,4-1.2,6-1.5c2.1-0.3,4.1-0.4,6.2-0.5c4.2-0.1,8.4-0.1,12.5,0.4c0,0,0.5,0.1,1.3,0.2
				c0.9,0.2,2.1,0.4,3.6,1c0.2,0.1,0.4,0.2,0.6,0.2c0.2,0.1,0.4,0.2,0.6,0.3c0.2,0.1,0.4,0.2,0.6,0.4c0.2,0.2,0.4,0.3,0.5,0.5
				c0.7,0.7,1.1,1.7,1,2.9c0,0.3,0,0.6-0.1,0.9c0,0.3-0.2,0.5-0.4,0.7c-0.5,0.3-1.1,0.5-1.7,0.7c-1.2,0.3-2.6,0.4-4,0.6
				c-5.7,0.4-12.4,0.5-19.6,1c-1.8,0.1-3.6,0.3-5.4,0.8c-1.8,0.5-3.6,1.2-5.1,2.4c-3.1,2.3-4.9,6.2-4.7,10.1c-0.1-2.3,0.6-5,2.2-7.4
				c1.7-2.4,4.5-4.2,7.7-5c3.2-0.9,6.6-0.8,10-1c3.4-0.1,6.8-0.3,10.1-0.4c3.3-0.2,6.4-0.2,9.2-0.9c0.7-0.2,1.4-0.4,1.9-1
				c0.1-0.2,0.2-0.3,0.2-0.5s0-0.3,0-0.5c0-0.3,0-0.7,0-1c-0.1-1.3-0.9-2.4-1.8-3.1c-0.9-0.6-1.8-1-2.7-1.3
				c-0.8-0.3-1.6-0.4-2.2-0.6c-0.6-0.1-1.1-0.2-1.4-0.2s-0.5-0.1-0.5-0.1c-4.2-0.5-8.4-0.5-12.5-0.4c-2.1,0.1-4.2,0.2-6.3,0.5
				s-4.1,0.7-6.1,1.5c0,0-0.2,0.1-0.5,0.2s-0.7,0.3-1.3,0.6c-1.1,0.6-2.5,1.6-4.4,2.7c-0.9,0.5-2,1.2-3.2,1.1
				c-0.6-0.1-1.2-0.4-1.5-0.9s-0.4-1.2-0.3-1.9c0.2-1.4,1.1-2.6,2.2-3.7c1.1-1,2.5-1.9,3.9-2.6c3-1.3,6.4-1.9,9.7-2.2
				c3.4-0.3,6.8-0.5,10.1-0.4c6.6,0.1,12.7,1,17,2.3c-3.7-1.2-7.6-1.8-11.4-2.2c-3.8-0.4-7.6-0.4-11.2-0.3c-0.9,0-1.8,0.1-2.7,0.1
				c-0.9,0.1-1.8,0.1-2.6,0.2c-1.7,0.2-3.4,0.4-5,0.8c-3.2,0.8-6.2,2-8.3,4c-1,1-1.8,2.2-2.1,3.5c-0.1,0.6-0.1,1.3,0.1,1.9
				c0.2,0.6,0.7,1.1,1.3,1.3c1.2,0.4,2.3-0.1,3.2-0.6s1.7-1,2.4-1.4c1.4-0.9,2.5-1.6,3.3-1.9C47.4,332,47.9,331.8,47.9,331.8z"/>
		</g>
	</g>
</g>
<g>
	<g>
		<g>
			<path class="st7" d="M76.1,238.8c0.7,4.6,1.5,9.1,2.5,13.6c0,0,0.2,1,0.6,2.8c0.2,0.9,0.5,2,0.8,3.2s0.7,2.6,1.1,4.1
				c0.9,3,2,6.6,3.4,10.3c0.7,1.9,1.5,3.8,2.6,5.6c0.3,0.5,0.6,0.9,0.9,1.3s0.8,0.8,1.3,0.8c0.6-0.1,0.8-0.7,1-1.1
				c0.2-0.5,0.3-1,0.4-1.6c-0.1,0.6-0.2,1.3-0.6,1.9c-0.2,0.3-0.4,0.6-0.8,0.7s-0.7-0.2-1-0.4c-1.1-1.2-1.8-2.8-2.6-4.4
				c-1.4-3.4-2.6-7.1-3.7-10.5c-0.5-1.7-1-3.4-1.4-4.9s-0.7-2.9-1-4.1c-0.5-2.3-0.9-3.8-0.9-3.8c-1-4.5-1.8-9.1-2.5-13.6
				c0,0-0.2-1.5-0.5-3.8c-0.3-2.4-0.7-5.6-1-9.2c-0.7-7.2-0.8-15.7-0.5-20.7c-0.5,8.6-0.1,17.1,0.5,23.4c0.3,3.1,0.6,5.7,0.9,7.5
				C76,237.8,76.1,238.8,76.1,238.8z"/>
		</g>
	</g>
</g>
<path class="st8" d="M75.5,369.4c8.1,5.2,20.4,17.1-3.3,21.8c-23.7,4.7-15.6,5.7,1.4,4.7"/>
<g>
	<g>
		<g>
			<path class="st7" d="M251.6,316.5c2.8,1.1,5.4,2.6,7.9,4.2c0,0,2.3,1.4,5.6,3.8c3.3,2.4,7.6,5.8,11.8,9.5
				c-2.3-2.3-6.5-5.9-10.3-8.7c-3.7-2.8-7-4.8-7-4.8c-2.5-1.6-5.2-3-7.9-4.2c0,0-0.9-0.4-2.4-0.9s-3.6-1-5.9-1
				c-1.2,0-2.4,0.2-3.6,0.1c-0.3,0-0.6,0-0.9-0.1c-0.3,0-0.6-0.1-0.8-0.3c-0.1-0.1,0.2-0.4,0.4-0.6s0.5-0.3,0.7-0.5
				c2.1-1.1,4.2-1.8,5.7-2.4c-1.3,0.4-2.6,0.9-3.9,1.4c-0.6,0.3-1.3,0.5-1.8,0.8c-0.3,0.2-0.6,0.3-0.8,0.5c-0.1,0.1-0.3,0.2-0.3,0.4
				c-0.1,0.1-0.1,0.2,0,0.3c0.1,0.1,0.1,0.2,0.2,0.2c0.6,0.3,1.3,0.3,1.9,0.3c0.6,0,1.2,0,1.8,0c1.2-0.1,2.3-0.1,3.3,0
				c2,0.2,3.6,0.7,4.7,1.1c0.6,0.2,1,0.4,1.3,0.5C251.5,316.4,251.6,316.5,251.6,316.5z"/>
		</g>
	</g>
</g>
<g>
	<path class="st9" d="M268.4,130.2c-16-9-30.4-19.8-30.4-19.8l-0.5,0.1c0-0.1,0-0.2,0-0.2l-5.4-4l-3.3-3.4c0,0-1.1-0.7-1.9-0.5
		c-4.2,1.2-22.9,7.6-35.5,7.4c-13.2-0.2-26.6-8-29.8-9.4c-0.6-0.2-1.5,0.2-1.5,0.2l-3.5,3.6l-5.3,3.5c0,0,0,0.1,0.1,0.4l-0.5,0.5
		c0,0-8.7,4.1-19.5,10.3l-15.5,9.1c-2.1,0.9-10,3.3-11.8,4.1c-8.1,3.4-10.2,4.5-15.6,8.4c-8.1,5.8-15.4,9.2-24.2,31.8
		c-3,7.8-2.8,4.1-4.6,14.8s-2.8,11.7-6,19.9s-6.4,20.5-9,28.7s-6,24.4-10.3,31.2c-4.2,6.9-7,46.4-6,53.3c1.1,6.9,0,14.5,0,21.9
		s-0.4,1.7,1.7,10.1s-0.3,9.3,2,17.9c2.7,10,5.1,19.6,6,27.9c0.3,2.4,0.2,3.6,2.6,6.8c1.1,1.5,7.4,18.3,8.7,28.2
		c0.5,3.9,6,1.6,15.6,0c10.1-1.7,13.3-3.4,17.2-4.1c3-0.5,3.9-2.1,2.6-8.2c-1.4-6.7-0.7-21.8-0.7-21.8s1.3-7.9,0.7-14.2
		c-0.5-6.3,1.9-5.5,0.3-17.1s-2.6-9-2.1-13.2s-2.6-9.5-1.6-13.7c1.1-4.2-1.4-32.7,4.6-48.6c5.3-13.8,4.2-7.1,5.2-14.7
		c0.5-3.7,3.3-9.9,6.1-15.6l0.9-2.8c0,0,0,21.2,2.1,29s9.5,52.2,7.7,61.2c-1.2,6-3.2,10.5-2.5,12.6c0.7,2.4,2.6,39.2,2.6,39.2
		c2.6,11.1-8.4,11.6-4.1,28.9c0,0,23.8,4.3,34.6,5.2c11.5,0.9,33.5-2.9,54.1-1.2c18.8,1.5,85.7-2,89.2-3.9c0,0-4.5-11.3-1.5-21.8
		c0.6-2-2.3-17.1-1.6-24.6c0.2-1.7-0.4-22.7-1.7-27.5c-1.3-4.8-0.5-55.1-1.2-61.9c-1-9.8,5.8-18.3,4.3-27c-1.5-8.6-0.3-5.9,0.8-9.3
		c1-3.4-0.1-11.4,1.5-14.3c1.7-2.9,4.1-8.8,4.5-14.2c0,0-8.6,94.2-7.9,101.7c0.9,8.5,3,30,3.9,39.1c0.9,9,2.6,7.9,2.1,17.3
		c-0.7,12.3-0.3,8.4,2.7,14.9c1.5,3.2,1.6,16.9,3.6,24.3c0,0,8.1,3.1,8.5,3.1c5.4,0.5,9.7-1.7,18-2.1c6.5-0.3,9.4-2,9.5-3.7
		c0,0-1-17.4,1.3-25.1s2.3-12.9,1.4-22c-1-9.6-1.6-24.1-0.2-39.1c1.5-15-3-38.4-3-42.4c0-3.9-1.9-22.2-2.9-27.2
		c-1-5.1-7.5-24.1-9.4-32.6c-1.9-8.4-0.1-15.5-1.1-26.2s-1.7-10.6-3.1-23c-1.5-12.4-8.2-37-17.9-44.5
		C289.2,139.2,268.4,130.2,268.4,130.2z"/>
	<g>
		<path d="M269.3,129.3c-8-4.6-15.8-9.6-23.4-14.8c-2-1.4-3.9-3.2-6-4.3c-0.9-0.5-1.2-1.3-1.4-0.3c0-0.1,0.1-0.4,0-0.5
			c-2-1.5-4.1-2.9-5.9-4.5c-1.7-1.6-2.6-3.6-5.2-3.4c-4.2,0.3-8.9,2.7-13,3.8c-5.8,1.5-11.7,2.8-17.6,3.3c-7,0.6-13.8-0.7-20.3-3
			c-4.4-1.6-8.7-4.6-13.2-5.8c-2.5-0.7-3.4,0.6-5.1,2.3c-1.9,1.9-3.9,3.1-6.6,4.9c-0.4,0.3-1.2,1-1,1.6c-0.1-0.3,1.4-1.1,0.4-0.6
			c-0.5,0.3-1.1,0.5-1.6,0.8c-2.3,1.1-4.7,2.3-7,3.5c-4.4,2.3-8.7,4.7-13,7.2c-6.9,4-13.1,7.7-20.7,10.2
			c-17.5,5.8-33,16.9-41.1,33.7c-2.4,4.9-4.5,9.9-6.5,14.9c-1.8,4.4-2.1,9.4-3,14c-1.2,5.6-3.5,10.7-5.5,16.1
			c-2.4,6.5-4.3,13.2-6.2,19.9c-3.5,11.8-5.9,24.7-11.1,35.9c-3.3,7.1-4.7,13.9-5.6,21.7c-1.2,9.7-2,19.5-2.1,29.2
			c0,4.5,0.7,8.9,0.7,13.5c0,5.8-1.5,12.4-0.5,18.2c0.8,4.7,2.7,8.8,2.7,13.7c0,6.8,1.9,12.9,3.5,19.5c1.7,6.9,2.3,14.1,3.9,21
			c0.9,3.7,3.6,7.2,5,10.9c2,5.6,3.9,11.3,5.2,17.1c0.8,3.6,0.3,7.1,4.7,7.1c2.6,0,5.4-0.9,7.9-1.4c4-0.8,7.9-1.4,11.9-2.3
			c3.5-0.9,7.6-1.5,10.8-2.9c2.4-1,3.4-2.9,3.4-5.4c0-2.4-0.8-4.8-1.1-7.2c-0.4-3.2-0.4-6.4-0.4-9.6s0-6.4,0.3-9.6
			c0.5-5.7,0.1-11.4,0.7-17c0.4-3.9,1-7.3,0.6-11.3c-0.4-4.5-2-8.8-2.5-13.3c-0.2-1.3,0.2-2.6,0.1-3.8c-0.1-3.7-2-7.2-1.8-10.9
			c0.2-3.5,0.5-6.9,0.5-10.4c0-12-0.2-24.7,3.3-36.4c1.3-4.4,3.4-8.3,5.1-12.5c0.8-2,0.8-4.2,1.3-6.3c1.3-6,4.8-11.3,6.7-17.1
			c-0.6,0.3-1.2,0.6-1.8,1c0,10.8,0.5,21.5,2.8,32c2.7,12.8,4.6,25.8,6.1,38.7c0.7,5.8,1.6,11.9,1.1,17.7
			c-0.5,5.5-3.2,10.3-2.5,15.9c1.4,10.8,1.5,21.9,2.1,32.8c0.3,4.9,1.3,9.6-1,14.2c-3.4,6.9-4.6,12.1-2.8,19.9
			c0,0.1,0.1,0.2,0.2,0.2c10.5,1.9,21.1,3.7,31.8,4.9c17,1.8,34.4-1.9,51.5-1.3c23.5,0.9,46.9,0.3,70.4-1.1
			c5.6-0.4,11.2-0.7,16.8-1.3c2.5-0.2,5.6-0.2,7.9-1.3c0.5-0.2,1.5-1,1.3-1.7c-0.9-2.4-1.6-5.1-2-7.6c-0.9-5.3,0.2-9.6,0.6-14.8
			c0.5-7.2-2-14.6-1.8-21.8c0.3-10.5-0.5-20.8-1.8-31.2c-1.5-12.2-0.6-25-0.6-37.3c0-6.1,0-12.1-0.2-18.2c0-1.5-0.1-3-0.2-4.5
			c-0.2-6,1.6-11.2,3.2-16.9c1.3-4.8,1.2-8.7,0.6-13.6c-0.3-2.7,0.6-3.6,1.3-6c1.3-4.3-0.2-9,1.2-13.3c1.7-5.2,4.3-9.5,4.9-15.2
			c-0.6,0.4-1.3,0.8-1.9,1.2c-2.6,27.9-5.1,55.9-7,83.9c-0.4,5.3-0.9,10.7-0.9,16.1c0.1,8.2,1.5,16.5,2.3,24.7
			c0.5,5.3,1,10.6,1.6,15.9c0.6,5.4,2.3,10.4,2.2,15.8c-0.1,3.9-1.2,8.6,0.2,12.4c1.3,3.4,2.9,5.7,3.4,9.4c0.7,5.8,0.7,12,2.2,17.7
			c0.8,3.1,4.4,3.4,7.3,4.4c4.2,1.4,8.4,0.2,12.7-0.6c5-0.9,11.6,0.1,16-2.9c1.5-1,2.1-2.1,2.3-3.8c0.5-4.3-0.3-8.9-0.1-13.3
			c0.2-5.4,1.5-10.3,2.5-15.5c1.3-6.4,0.7-12.7,0.1-19.1c-0.7-7.4-1-14.9-0.9-22.3c0.1-7.6,1.2-15.1,1.1-22.6
			c-0.1-11.1-1.9-21.9-3.1-32.8c-0.9-8.4-1.3-16.9-2.4-25.3c-1.2-9.2-4.7-18-7.3-26.8c-1.6-5.2-3.2-10.4-3.6-15.8
			c-0.5-7.1,0.3-14.1-0.3-21.2c-1-10.4-2.4-21.2-4.7-31.4c-2.4-10.7-5.8-22.5-12.5-31.4c-5-6.5-13.8-9.3-20.9-12.6
			c-2.5-1.1-5-2.2-7.4-3.3c-0.7-0.3-2.3,1.6-1.5,1.9c6.5,2.8,13.1,5.7,19.4,9c9.1,4.6,13.2,13.1,16.6,22.4
			c3.9,10.6,5.4,21.3,7.1,32.3c0.7,4.6,1.5,9.1,2,13.8c0.7,6.9,0.1,13.6,0.3,20.5c0.4,10.5,4.8,20.9,7.8,30.9
			c2.4,8,3.6,15.9,4.4,24.3c0.8,7.3,1.2,14.7,2.1,22c1.7,13.2,2,25.7,1.3,39c-0.4,6.9-0.4,13.9-0.1,20.8c0.3,7,1.5,14,1.4,20.9
			c0,5.7-2,10.9-2.8,16.5c-0.7,4.9-0.8,9.9-0.7,14.8c0,1.6,0.3,3.3,0.1,4.9c-0.3,2.4-1.3,2.6-4.1,3.1c-3.2,0.6-6.5,0.5-9.7,1
			c-3,0.5-6,1.3-9,1.5c-2.9,0.2-8.1-0.9-10.4-2.8c-2.9-2.3-2.5-10.8-2.9-14.5c-0.4-4.3-0.6-8.4-2.7-12.3c-1.6-2.9-1.8-4.9-1.6-8.3
			c0.2-5.1,0.4-9.7-0.7-14.7c-1.1-4.6-1.4-9.3-1.9-14c-1.5-14.6-3.6-29.1-2.7-43.8c1.8-29.2,4.6-58.3,7.2-87.4
			c0.1-0.7,0.1-1.5,0.2-2.2c0.1-1-1.8,0.5-1.9,1.2c-0.6,5.6-3,9.6-4.8,14.8c-1.3,3.6-0.4,7.6-0.9,11.3c-0.2,2-1.3,3.3-1.7,5.1
			c-0.9,3.7,1.1,7.9,0.6,11.6c-0.6,4.8-2.7,9.3-3.7,14c-0.8,3.4-0.7,6.6-0.5,10c0.2,5.5,0.2,11.1,0.2,16.6
			c0.1,12.9-0.2,25.8,0.5,38.7c0.5,10.5,2.4,20.8,2.1,31.4c-0.2,7.9,1.5,15.5,1.6,23.3c0.1,4.5-1.3,8.7-0.9,13.3
			c0.3,3.5,1.1,7.2,2.4,10.5c0.4-0.6,0.9-1.1,1.3-1.7c-2.2,1-5.4,0.9-7.8,1.2c-5.3,0.5-10.6,0.9-15.9,1.2
			c-13.4,0.9-26.9,1.4-40.4,1.7c-12.6,0.3-25.1-0.8-37.7-0.7c-17.3,0.1-34.2,2.8-51.4,0.4c-6.6-0.9-13.3-2-19.9-3.2
			c-0.9-0.1-3.7-0.2-4.4-0.8c-0.8-0.7-0.7-4.5-0.8-5.7c-0.1-2.4,0.1-4.7,0.8-7c1.4-4.5,4.7-8,4.6-12.9c0-2.9-0.6-6-0.7-8.9
			c-0.6-10.3-0.9-20.8-2-31.1c-0.6-5.6,1.7-10.2,2.4-15.7c0.5-4.4-0.1-9.1-0.5-13.5c-1.4-14.1-3.5-28.2-6.3-42.1
			c-2.2-11.2-3.1-22.2-3.2-33.6c0-1.1-1.7,0.5-1.8,1c-1.6,5.1-4.4,9.8-6.1,14.9c-0.9,2.7-0.8,5.6-1.7,8.1c-1.2,3.4-3.1,6.6-4.4,10
			c-1.9,5.1-2.8,10.5-3.4,15.9c-1.1,10.1-0.5,20.1-1,30.2c-0.2,4.3-0.1,7.6,0.9,11.8c0.7,3,0.1,5.9,0.8,8.8
			c4.3,17.5,0.1,35.2,0.6,53c0.1,2.1,0.1,4.2,0.4,6.2c0.3,2.8,2.5,7.8-0.7,9.5c-3.3,1.8-8.5,2.4-12.2,3.2c-3.5,0.8-7.1,1.3-10.7,2
			c-2.1,0.4-5.7,1.7-7.8,1c-2.3-0.8-2-3.9-2.5-6c-0.6-2.9-1.4-5.7-2.3-8.5c-1.4-4.7-2.9-9.7-5-14.2c-0.6-1.3-1.5-2.4-2.1-3.7
			c-1.3-2.6-1.2-5.6-1.7-8.5c-1.2-7.8-3.2-15.4-5.2-23c-1.4-5.5-0.8-10.9-1.8-16.4c-0.6-3.6-2.3-6.8-2.2-10.5
			c0-7.1,0.9-14.3,0.3-21.4c-0.7-8.2-0.3-16.2,0.3-24.5c0.7-9.1,1.3-18.6,3.9-27.4c1-3.4,3-6.4,4.2-9.7c2.1-5.6,3.6-11.4,5.2-17.2
			c3.2-11.9,6.6-23.9,10.8-35.5c1.7-4.5,3.7-8.8,4.9-13.5c1.4-5.3,1.5-11,3.4-16.2c3.8-10.1,8.2-21.3,15.9-29.1
			c6.3-6.4,14.8-11.5,23-15c6.8-2.9,13.6-4.7,20-8.5c8.2-4.8,16.5-9.7,25-13.9c1.8-0.9,3.9-1.6,5.4-3.1c0.2-0.2,0.7-0.8,0.6-1.2
			c0-0.1-0.1-0.3-0.1-0.4c-0.3,0.5-0.7,1-1,1.6c1.9-1.3,4-2.4,5.8-3.9c0.9-0.7,1.9-2.7,3-3.1c1.2-0.4,2.7,0.7,4.1,1.3
			c9.8,4.8,20.3,8.5,31.4,7.6c9.8-0.8,19.4-3.7,28.7-6.5c3.7-1.1,4.3,0.7,6.9,3c0.8,0.7,5.4,3.9,5.4,3.8c-0.1,0.3-0.1,0.7,0.3,0.6
			c1.7-0.3,7.4,5,8.9,6c7.1,4.9,14.3,9.4,21.8,13.7C268.3,131.5,269.8,129.6,269.3,129.3z"/>
	</g>
</g>
<g>
	<g>
		<g>
			<g>
				<g>
					<path class="st10" d="M329.3,399.1l-0.4-0.1l-0.4-0.1c-0.3-0.1-0.6-0.2-0.9-0.3"/>
					<path class="st10" d="M331,397.3c-0.1-0.1-0.2-0.2-0.3-0.3c-0.1-0.1-0.3-0.2-0.3-0.2l-0.4-0.2c-0.3-0.1-0.5-0.2-0.7-0.2
						c-0.4-0.2-0.9-0.3-1.3-0.4"/>
					<path class="st11" d="M331,397.3c-0.8-0.6-1.6,1.9-1.9,1.8c-0.4-0.1,0.8-2.4,0.2-2.6c-0.6-0.2-0.9,2.4-1.4,2.2
						c-0.6-0.1,0.7-2.4,0-2.6"/>
				</g>
			</g>
			<g>
				<g>
					<path class="st10" d="M326.8,398.3c-0.6-0.2-1.3-0.3-1.9-0.5"/>
					<path class="st10" d="M327.7,396c-0.9-0.2-1.7-0.4-2.6-0.6"/>
					<path class="st11" d="M327.7,396c-0.4-0.1-0.8,2.4-1.2,2.3c-0.5-0.1,0.5-2.5-0.1-2.6s-0.7,2.4-1.2,2.3
						c-0.7-0.1,0.6-2.4-0.2-2.6"/>
				</g>
			</g>
			<g>
				<g>
					<line class="st12" x1="324" y1="397.7" x2="322.1" y2="397.3"/>
					<path class="st10" d="M324.9,395.3c-0.9-0.2-1.7-0.4-2.6-0.5"/>
					<path class="st11" d="M324.9,395.3c-0.4-0.1-0.7,2.4-1.1,2.3c-0.5-0.1,0.4-2.5-0.2-2.6s-0.6,2.4-1.2,2.4
						c-0.7-0.1,0.5-2.5-0.3-2.6"/>
				</g>
			</g>
			<g>
				<g>
					<line class="st12" x1="321.2" y1="397.1" x2="319.3" y2="396.8"/>
					<path class="st10" d="M322,394.7c-0.9-0.2-1.7-0.3-2.6-0.4"/>
					<path class="st11" d="M322,394.7c-0.4-0.1-0.6,2.5-1.1,2.4s0.3-2.5-0.2-2.6c-0.6-0.1-0.6,2.5-1.1,2.4c-0.7-0.1,0.4-2.5-0.3-2.6
						"/>
				</g>
			</g>
			<g>
				<g>
					<line class="st12" x1="318.4" y1="396.7" x2="316.5" y2="396.4"/>
					<path class="st10" d="M319.1,394.3c-0.9-0.1-1.7-0.2-2.6-0.3"/>
					<path class="st11" d="M319.1,394.2c-0.4-0.1-0.5,2.5-1,2.4s0.3-2.5-0.3-2.6c-0.6-0.1-0.5,2.5-1,2.4c-0.7,0,0.3-2.5-0.5-2.6"/>
				</g>
			</g>
			<g>
				<g>
					<path class="st10" d="M315.6,396.3c-0.6-0.1-1.3-0.1-1.9-0.1"/>
					<path class="st10" d="M316.2,393.9c-0.9-0.1-1.8-0.2-2.7-0.2"/>
					<path class="st11" d="M316.2,393.9c-0.4,0-0.4,2.5-0.9,2.5s0.1-2.5-0.5-2.6c-0.6,0-0.3,2.5-0.8,2.5c-0.7,0,0.2-2.5-0.6-2.6"/>
				</g>
			</g>
			<g>
				<g>
					<path class="st10" d="M312.8,396.2c-0.6,0-1.2,0-1.9,0.1"/>
					<path class="st10" d="M313.2,393.7c-0.9,0-1.8,0-2.7,0.1"/>
					<path class="st11" d="M313.2,393.7c-0.4,0-0.2,2.5-0.7,2.5s-0.1-2.5-0.7-2.5s-0.1,2.5-0.6,2.6c-0.6,0.1-0.2-2.5-0.9-2.5"/>
				</g>
			</g>
			<g>
				<g>
					<path class="st10" d="M310.1,396.3c-0.6,0.1-1.3,0.2-1.9,0.3"/>
					<path class="st10" d="M310.1,393.8c-0.9,0.1-1.8,0.2-2.6,0.3"/>
					<path class="st11" d="M310.1,393.8c-0.4,0,0.1,2.5-0.4,2.6s-0.4-2.5-1-2.4s0.2,2.5-0.3,2.6c-0.6,0.1-0.3-2.5-1.1-2.4"/>
				</g>
			</g>
			<g>
				<g>
					<line class="st12" x1="307.3" y1="396.7" x2="305.3" y2="397"/>
					<path class="st10" d="M307.2,394.2c-0.9,0.1-1.7,0.3-2.6,0.4"/>
					<path class="st11" d="M307.2,394.2c-0.4,0.1,0.3,2.5-0.2,2.6s-0.5-2.5-1.1-2.4s0.3,2.5-0.2,2.6c-0.6,0.2-0.4-2.5-1.2-2.4"/>
				</g>
			</g>
			<g>
				<g>
					<line class="st12" x1="304.5" y1="397.2" x2="302.5" y2="397.6"/>
					<line class="st12" x1="304.3" y1="394.7" x2="301.8" y2="395.2"/>
					<path class="st11" d="M304.3,394.7c-0.4,0.1,0.3,2.5-0.2,2.6s-0.6-2.5-1.2-2.4s0.3,2.5-0.2,2.6c-0.6,0.2-0.5-2.5-1.2-2.3"/>
				</g>
			</g>
			<g>
				<g>
					<line class="st12" x1="301.6" y1="397.7" x2="299.7" y2="398.2"/>
					<line class="st12" x1="301.5" y1="395.3" x2="298.9" y2="395.8"/>
					<path class="st11" d="M301.5,395.2c-0.4,0.1,0.4,2.5-0.1,2.6s-0.6-2.5-1.2-2.3c-0.6,0.1,0.4,2.5-0.1,2.6
						c-0.6,0.2-0.5-2.5-1.3-2.3"/>
				</g>
			</g>
			<g>
				<g>
					<line class="st12" x1="298.8" y1="398.4" x2="296.9" y2="398.8"/>
					<line class="st12" x1="298.6" y1="395.9" x2="296.1" y2="396.5"/>
					<path class="st11" d="M298.6,395.9c-0.3,0.1,0.4,2.5-0.1,2.6s-0.7-2.5-1.2-2.3c-0.6,0.1,0.4,2.5-0.1,2.6
						c-0.6,0.2-0.6-2.4-1.3-2.3"/>
				</g>
			</g>
			<g>
				<g>
					<line class="st12" x1="296" y1="399" x2="294.1" y2="399.5"/>
					<line class="st12" x1="295.8" y1="396.5" x2="293.3" y2="397.2"/>
					<path class="st11" d="M295.8,396.5c-0.3,0.1,0.5,2.5,0,2.6s-0.7-2.4-1.3-2.3c-0.6,0.1,0.5,2.5,0,2.6c-0.6,0.2-0.6-2.4-1.4-2.3"
						/>
				</g>
			</g>
			<g>
				<g>
					<line class="st12" x1="293.3" y1="399.7" x2="291.4" y2="400.3"/>
					<path class="st10" d="M293,397.3c-0.8,0.2-1.7,0.5-2.5,0.7"/>
					<path class="st11" d="M293,397.2c-0.3,0.1,0.5,2.5,0.1,2.6c-0.5,0.1-0.8-2.4-1.3-2.3c-0.6,0.2,0.5,2.5,0.1,2.6
						c-0.6,0.2-0.7-2.4-1.4-2.2"/>
				</g>
			</g>
			<g>
				<g>
					<path class="st10" d="M290.6,400.5c-0.6,0.2-1.2,0.4-1.7,0.6"/>
					<path class="st10" d="M290.1,398.1c-0.4,0.1-0.8,0.3-1.3,0.4c-0.2,0.1-0.4,0.2-0.7,0.3c-0.2,0.1-0.4,0.2-0.8,0.4"/>
					<path class="st11" d="M290.1,398.1c-0.3,0.1,0.6,2.4,0.2,2.6c-0.5,0.2-0.9-2.4-1.5-2.2c-0.6,0.2,0.7,2.4,0.3,2.6
						c-0.2,0.1-0.5-0.4-0.8-1c-0.2-0.3-0.3-0.6-0.5-0.7c-0.1-0.1-0.2-0.1-0.3-0.2c-0.1,0-0.1,0-0.2,0c0,0-0.1,0-0.1,0.1
						c-0.1,0-0.1,0.1-0.2,0.2"/>
				</g>
			</g>
		</g>
	</g>
</g>
<g>
	<g>
		<path class="st0" d="M85.6,395.5c-2.7-0.6-23.2,0.9-28,2.3c-4.3,1.2-15.8,6.1-15.8,6.1"/>
		<g>
			<g>
				<g>
					<path class="st10" d="M85.1,396.7c-0.2,0-0.6,0-0.9-0.1c-0.3,0-0.7,0-1,0"/>
					<path class="st10" d="M85.8,394.3l-0.8-0.1h-0.7c-0.5,0-0.9,0-1.4,0"/>
					<path class="st11" d="M85.9,394.3c-0.4-0.1-0.6,2.5-1,2.4c-0.5,0,0.1-2.5-0.6-2.6c-0.6,0-0.2,2.5-0.8,2.5c-0.7,0,0-2.5-0.8-2.5
						"/>
				</g>
			</g>
			<g>
				<g>
					<line class="st12" x1="82.3" y1="396.6" x2="80.2" y2="396.7"/>
					<path class="st10" d="M82.6,394.1c-0.9,0-1.8,0-2.7,0.1"/>
					<path class="st11" d="M82.6,394.1c-0.4,0-0.1,2.5-0.6,2.5s-0.2-2.5-0.8-2.5c-0.6,0-0.1,2.5-0.6,2.6c-0.7,0.1-0.1-2.5-0.9-2.5"
						/>
				</g>
			</g>
			<g>
				<g>
					<line class="st12" x1="79.3" y1="396.7" x2="77.3" y2="396.8"/>
					<line class="st12" x1="79.6" y1="394.2" x2="76.8" y2="394.4"/>
					<path class="st11" d="M79.5,394.2c-0.4,0,0,2.5-0.5,2.6c-0.5,0-0.2-2.5-0.8-2.5c-0.6,0,0,2.5-0.6,2.6c-0.7,0.1-0.1-2.5-0.9-2.5
						"/>
				</g>
			</g>
			<g>
				<g>
					<line class="st12" x1="76.3" y1="396.9" x2="74.3" y2="397"/>
					<line class="st12" x1="76.5" y1="394.4" x2="73.8" y2="394.6"/>
					<path class="st11" d="M76.5,394.4c-0.4,0,0,2.5-0.5,2.6c-0.5,0-0.3-2.5-0.9-2.5s0,2.5-0.5,2.6c-0.7,0.1-0.1-2.5-0.9-2.5"/>
				</g>
			</g>
			<g>
				<g>
					<line class="st12" x1="73.3" y1="397.1" x2="71.3" y2="397.2"/>
					<line class="st12" x1="73.5" y1="394.6" x2="70.8" y2="394.8"/>
					<path class="st11" d="M73.5,394.6c-0.4,0,0.1,2.5-0.5,2.6c-0.5,0-0.3-2.5-0.9-2.5s0,2.5-0.5,2.6c-0.7,0.1-0.2-2.5-1-2.5"/>
				</g>
			</g>
			<g>
				<g>
					<line class="st12" x1="70.4" y1="397.3" x2="68.3" y2="397.5"/>
					<line class="st12" x1="70.5" y1="394.8" x2="67.8" y2="395.1"/>
					<path class="st11" d="M70.5,394.8c-0.4,0,0.1,2.5-0.4,2.6c-0.5,0-0.3-2.5-0.9-2.5c-0.6,0.1,0.1,2.5-0.5,2.6
						c-0.7,0.1-0.2-2.5-1-2.4"/>
				</g>
			</g>
			<g>
				<g>
					<line class="st12" x1="67.4" y1="397.6" x2="65.4" y2="397.8"/>
					<line class="st12" x1="67.5" y1="395.1" x2="64.8" y2="395.4"/>
					<path class="st11" d="M67.5,395.1c-0.4,0,0.1,2.5-0.4,2.6s-0.4-2.5-1-2.5c-0.6,0.1,0.1,2.5-0.4,2.6c-0.7,0.1-0.2-2.5-1-2.4"/>
				</g>
			</g>
			<g>
				<g>
					<line class="st12" x1="64.4" y1="397.9" x2="62.4" y2="398.2"/>
					<line class="st12" x1="64.5" y1="395.4" x2="61.8" y2="395.7"/>
					<path class="st11" d="M64.5,395.4c-0.4,0,0.2,2.5-0.4,2.6c-0.5,0.1-0.4-2.5-1-2.4s0.2,2.5-0.4,2.6c-0.7,0.1-0.3-2.5-1.1-2.4"/>
				</g>
			</g>
			<g>
				<g>
					<path class="st10" d="M61.5,398.3c-0.7,0.1-1.3,0.2-2,0.3"/>
					<path class="st10" d="M61.5,395.8c-0.9,0.1-1.8,0.3-2.7,0.5"/>
					<path class="st11" d="M61.5,395.8c-0.4,0.1,0.2,2.5-0.3,2.6s-0.5-2.5-1.1-2.4s0.2,2.5-0.3,2.6c-0.7,0.2-0.4-2.5-1.2-2.3"/>
				</g>
			</g>
			<g>
				<g>
					<path class="st10" d="M58.6,398.8c-0.6,0.1-1.2,0.3-1.9,0.5"/>
					<path class="st10" d="M58.4,396.3c-1,0.2-1.9,0.5-2.7,0.8"/>
					<path class="st11" d="M58.4,396.3c-0.4,0.1,0.4,2.5-0.1,2.6s-0.8-2.4-1.4-2.3c-0.6,0.2,0.6,2.5,0.1,2.6
						c-0.6,0.2-0.8-2.4-1.5-2.2"/>
				</g>
			</g>
			<g>
				<g>
					<line class="st12" x1="55.9" y1="399.6" x2="54" y2="400.3"/>
					<path class="st10" d="M55.4,397.2c-0.9,0.3-1.7,0.6-2.6,0.9"/>
					<path class="st11" d="M55.4,397.2c-0.4,0.1,0.7,2.4,0.2,2.6s-0.9-2.4-1.5-2.2c-0.6,0.2,0.7,2.4,0.2,2.6
						c-0.6,0.3-0.8-2.4-1.6-2.1"/>
				</g>
			</g>
			<g>
				<g>
					<line class="st12" x1="53.1" y1="400.7" x2="51.2" y2="401.4"/>
					<line class="st12" x1="52.5" y1="398.2" x2="50" y2="399.2"/>
					<path class="st11" d="M52.5,398.2c-0.3,0.1,0.8,2.4,0.3,2.6s-1-2.3-1.6-2.1c-0.6,0.2,0.8,2.4,0.3,2.6c-0.6,0.3-0.9-2.3-1.6-2.1
						"/>
				</g>
			</g>
			<g>
				<g>
					<line class="st12" x1="50.3" y1="401.8" x2="48.4" y2="402.5"/>
					<line class="st12" x1="49.7" y1="399.3" x2="47.2" y2="400.3"/>
					<path class="st11" d="M49.7,399.3c-0.3,0.1,0.8,2.4,0.3,2.6s-1-2.3-1.6-2.1c-0.6,0.2,0.8,2.4,0.3,2.6c-0.6,0.3-0.9-2.3-1.7-2.1
						"/>
				</g>
			</g>
			<g>
				<g>
					<line class="st12" x1="47.5" y1="402.9" x2="45.6" y2="403.6"/>
					<line class="st12" x1="46.9" y1="400.4" x2="44.4" y2="401.5"/>
					<path class="st11" d="M46.9,400.4c-0.3,0.1,0.8,2.4,0.3,2.6s-1-2.3-1.6-2.1c-0.6,0.2,0.8,2.4,0.3,2.6c-0.6,0.3-0.9-2.3-1.7-2"
						/>
				</g>
			</g>
			<g>
				<g>
					<line class="st12" x1="44.7" y1="404" x2="42.9" y2="404.8"/>
					<line class="st12" x1="44.1" y1="401.6" x2="41.6" y2="402.6"/>
					<path class="st11" d="M44.1,401.6c-0.3,0.1,0.8,2.4,0.4,2.6c-0.5,0.2-1.1-2.3-1.6-2.1c-0.6,0.2,0.8,2.4,0.3,2.6
						c-0.6,0.3-0.9-2.3-1.7-2"/>
				</g>
			</g>
		</g>
	</g>
</g>
<g>
	<g>
		<path d="M104.9,428.9c-0.1,0-0.1,0-0.2,0.1c-0.1,0.5-0.2,0.9-0.3,1.4c-1.2,1.2,0.3,0.1,1.1-0.2c1.7-0.6,3.4-1.3,5.2-1.8
			c4.7-1.5,9.4-2.9,14.2-3.9c5.7-1.2,11.5-2.1,17.3-1.8c4.1,0.2,7.4,1.6,11.1,3.2c7.9,3.3,17.1,4.2,25.5,5.4
			c10.8,1.5,21.7,2.5,32.6,3.3c6.8,0.4,15.3,1.9,22,0.2c0.7-0.2,2.2-2.3,1.3-2.1c-6.5,1.6-14.6,0.2-21.2-0.2
			c-11.2-0.7-22.5-1.8-33.6-3.4c-8.6-1.2-18-2.2-26-5.8c-9.1-4.1-18.8-2.9-28.3-0.8c-5.4,1.2-10.7,2.8-15.9,4.6
			c-1.9,0.7-4.6,1.2-6.1,2.6c-0.2,0.2-1.2,1.6-0.3,1.4c0.1,0,0.1,0,0.2-0.1C104.3,430.8,105.8,428.6,104.9,428.9L104.9,428.9z"/>
	</g>
</g>
<path class="st13" d="M104,421.4c10.6-3.8,37.8-11.9,48.2-6.1c12,6.8,75.4,11.6,81.7,9.7c0,0,43.7-1.3,45.9-2.5"/>
<path class="st13" d="M104,417.9c10.6-3.8,37.8-11.9,48.2-6.1c12,6.8,75.4,11.6,81.7,9.7c0,0,43.8-2.1,46-3.3"/>
<g>
	<g>
		<g>
			<g>
				<g>
					<g>
						<line class="st12" x1="97.7" y1="261.8" x2="98.3" y2="259.9"/>
						<line class="st12" x1="99.9" y1="262.9" x2="100.8" y2="260.5"/>
						<path class="st11" d="M99.9,262.9c0.1-0.3-2.4-0.9-2.2-1.4c0.2-0.5,2.4,0.7,2.6,0.2c0.2-0.6-2.3-1-2.2-1.5
							c0.2-0.7,2.4,0.8,2.6,0.1"/>
					</g>
				</g>
				<g>
					<g>
						<line class="st12" x1="98.6" y1="259" x2="99.3" y2="257.1"/>
						<line class="st12" x1="100.9" y1="260.2" x2="101.7" y2="257.7"/>
						<path class="st11" d="M100.9,260.2c0.1-0.3-2.3-1-2.2-1.5c0.2-0.5,2.4,0.8,2.6,0.2c0.2-0.6-2.3-1-2.2-1.5
							c0.2-0.7,2.3,0.9,2.6,0.2"/>
					</g>
				</g>
				<g>
					<g>
						<line class="st12" x1="99.7" y1="256.2" x2="100.4" y2="254.3"/>
						<line class="st12" x1="101.9" y1="257.4" x2="102.8" y2="254.9"/>
						<path class="st11" d="M101.9,257.4c0.1-0.3-2.3-1-2.1-1.5c0.2-0.5,2.4,0.8,2.6,0.2c0.2-0.6-2.3-1-2.1-1.6
							c0.2-0.7,2.3,0.9,2.6,0.2"/>
					</g>
				</g>
				<g>
					<g>
						<line class="st12" x1="100.7" y1="253.4" x2="101.4" y2="251.5"/>
						<line class="st12" x1="102.9" y1="254.6" x2="103.8" y2="252.2"/>
						<path class="st11" d="M102.9,254.6c0.1-0.3-2.3-1-2.1-1.5c0.2-0.5,2.4,0.8,2.6,0.3s-2.3-1.1-2.1-1.6c0.2-0.7,2.3,0.9,2.6,0.2"
							/>
					</g>
				</g>
				<g>
					<g>
						<line class="st12" x1="101.8" y1="250.6" x2="102.4" y2="248.8"/>
						<line class="st12" x1="104" y1="251.9" x2="104.9" y2="249.3"/>
						<path class="st11" d="M104,251.9c0.1-0.3-2.3-1.1-2.1-1.5c0.2-0.5,2.4,0.8,2.6,0.2s-2.3-1-2.2-1.5c0.2-0.6,2.4,0.8,2.7,0"/>
					</g>
				</g>
				<g>
					<g>
						<line class="st12" x1="102.7" y1="247.9" x2="103.1" y2="246"/>
						<path class="st10" d="M105,249c0.2-0.9,0.4-1.8,0.7-2.7"/>
						<path class="st11" d="M105,249c0.1-0.4-2.4-0.8-2.3-1.3s2.5,0.6,2.6,0s-2.4-0.8-2.3-1.3c0.1-0.7,2.4,0.6,2.6-0.2"/>
					</g>
				</g>
				<g>
					<g>
						<line class="st12" x1="103.3" y1="245.2" x2="103.7" y2="243.2"/>
						<path class="st10" d="M105.7,246c0.2-0.9,0.3-1.8,0.5-2.7"/>
						<path class="st11" d="M105.7,246c0.1-0.4-2.4-0.6-2.4-1.1c0.1-0.5,2.5,0.4,2.6-0.2c0.1-0.6-2.5-0.6-2.4-1.1
							c0.1-0.7,2.5,0.4,2.6-0.4"/>
					</g>
				</g>
				<g>
					<g>
						<line class="st12" x1="103.8" y1="242.3" x2="104" y2="240.3"/>
						<path class="st10" d="M106.2,243c0.1-0.9,0.2-1.8,0.3-2.7"/>
						<path class="st11" d="M106.2,243c0.1-0.4-2.5-0.5-2.4-1c0-0.5,2.5,0.2,2.6-0.4c0.1-0.6-2.5-0.4-2.5-1c0-0.7,2.5,0.3,2.6-0.5"
							/>
					</g>
				</g>
				<g>
					<g>
						<path class="st10" d="M104.1,239.4c0.1-0.7,0.1-1.3,0.1-2"/>
						<path class="st10" d="M106.5,240c0.1-0.9,0.1-1.8,0.1-2.7"/>
						<path class="st11" d="M106.5,240c0-0.4-2.5-0.3-2.5-0.8s2.5,0.1,2.6-0.5c0-0.6-2.5-0.3-2.5-0.8c0-0.7,2.5,0.1,2.6-0.7"/>
					</g>
				</g>
				<g>
					<g>
						<path class="st10" d="M104.2,236.5c0-0.7,0-1.3,0-2"/>
						<path class="st10" d="M106.7,236.9c0.1-0.9,0-1.8,0-2.7"/>
						<path class="st11" d="M106.7,236.9c0-0.4-2.5-0.2-2.5-0.7s2.6,0,2.6-0.7c0-0.6-2.5-0.2-2.5-0.7c0-0.7,2.5,0,2.5-0.8"/>
					</g>
				</g>
				<g>
					<g>
						<path class="st10" d="M104.2,233.6c0-0.7,0-1.3,0-2"/>
						<path class="st10" d="M106.7,233.9c0-0.9,0-1.8-0.1-2.7"/>
						<path class="st11" d="M106.7,233.9c0-0.4-2.5-0.1-2.5-0.6s2.5-0.1,2.5-0.8c0-0.6-2.5-0.1-2.6-0.6c-0.1-0.7,2.5-0.1,2.5-0.8"/>
					</g>
				</g>
				<g>
					<g>
						<path class="st10" d="M104.1,230.7c0-0.7,0-1.3-0.1-2"/>
						<path class="st10" d="M106.6,230.9c0-0.9-0.1-1.8-0.1-2.7"/>
						<path class="st11" d="M106.6,230.9c0-0.4-2.5,0-2.6-0.5c0-0.5,2.5-0.2,2.5-0.8s-2.5,0-2.6-0.6c-0.1-0.7,2.5-0.1,2.5-0.9"/>
					</g>
				</g>
				<g>
					<g>
						<line class="st12" x1="104" y1="227.8" x2="103.8" y2="225.8"/>
						<line class="st12" x1="106.5" y1="227.9" x2="106.3" y2="225.3"/>
						<path class="st11" d="M106.5,227.9c0-0.4-2.5,0-2.6-0.5c0-0.5,2.5-0.3,2.5-0.9c0-0.6-2.5,0-2.6-0.5c-0.1-0.7,2.5-0.2,2.5-1"/>
					</g>
				</g>
				<g>
					<g>
						<line class="st12" x1="103.7" y1="224.8" x2="103.6" y2="222.8"/>
						<line class="st12" x1="106.2" y1="225" x2="106" y2="222.3"/>
						<path class="st11" d="M106.3,225c0-0.4-2.5,0.1-2.6-0.4c0-0.5,2.5-0.3,2.5-0.9c-0.1-0.6-2.5,0.1-2.6-0.5
							c-0.1-0.7,2.5-0.2,2.4-1"/>
					</g>
				</g>
				<g>
					<g>
						<line class="st12" x1="103.5" y1="221.9" x2="103.3" y2="219.9"/>
						<line class="st12" x1="106" y1="222" x2="105.7" y2="219.3"/>
						<path class="st11" d="M106,222c0-0.4-2.5,0.1-2.6-0.4s2.5-0.4,2.5-1c-0.1-0.6-2.5,0.1-2.6-0.4c-0.1-0.7,2.5-0.2,2.4-1"/>
					</g>
				</g>
				<g>
					<g>
						<line class="st12" x1="103.2" y1="219" x2="102.9" y2="216.9"/>
						<line class="st12" x1="105.7" y1="219" x2="105.4" y2="216.4"/>
						<path class="st11" d="M105.7,219c0-0.4-2.5,0.1-2.6-0.4s2.5-0.4,2.5-1c-0.1-0.6-2.5,0.1-2.6-0.4c-0.1-0.7,2.5-0.3,2.4-1"/>
					</g>
				</g>
				<g>
					<g>
						<line class="st12" x1="102.8" y1="216" x2="102.6" y2="214"/>
						<line class="st12" x1="105.3" y1="216.1" x2="105" y2="213.4"/>
						<path class="st11" d="M105.3,216.1c0-0.4-2.5,0.2-2.6-0.4c-0.1-0.5,2.5-0.4,2.5-1c-0.1-0.6-2.5,0.1-2.6-0.4
							c-0.1-0.7,2.5-0.2,2.4-1"/>
					</g>
				</g>
				<g>
					<g>
						<line class="st12" x1="102.5" y1="213.1" x2="102.3" y2="211"/>
						<line class="st12" x1="105" y1="213.1" x2="104.7" y2="210.5"/>
						<path class="st11" d="M105,213.1c0-0.4-2.5,0.1-2.6-0.4s2.5-0.4,2.5-1c-0.1-0.6-2.5,0.1-2.6-0.4c-0.1-0.7,2.5-0.2,2.4-1"/>
					</g>
				</g>
				<g>
					<g>
						<line class="st12" x1="102.2" y1="210.1" x2="102" y2="208.1"/>
						<path class="st10" d="M104.7,210.2c-0.1-0.9-0.2-1.8-0.2-2.6"/>
						<path class="st11" d="M104.7,210.2c0-0.4-2.5,0.1-2.6-0.4s2.5-0.3,2.5-0.9c-0.1-0.6-2.5,0.1-2.6-0.5c-0.1-0.7,2.5-0.2,2.5-1"
							/>
					</g>
				</g>
				<g>
					<g>
						<path class="st10" d="M101.9,207.1c-0.1-0.7-0.1-1.4-0.1-2"/>
						<path class="st10" d="M104.4,207.3c-0.1-0.9-0.1-1.7-0.2-2.6"/>
						<path class="st11" d="M104.4,207.3c0-0.4-2.5,0.1-2.6-0.4c0-0.5,2.5-0.3,2.5-0.9c0-0.6-2.5,0-2.6-0.5
							c-0.1-0.7,2.5-0.1,2.5-0.9"/>
					</g>
				</g>
				<g>
					<g>
						<path class="st10" d="M101.7,204.1c0-0.7-0.1-1.4-0.1-2.1"/>
						<path class="st10" d="M104.2,204.3c-0.1-0.9-0.1-1.7-0.1-2.6"/>
						<path class="st11" d="M104.2,204.3c0-0.4-2.5,0-2.6-0.5c0-0.5,2.5-0.2,2.5-0.8s-2.5-0.1-2.6-0.6c-0.1-0.7,2.5-0.1,2.5-0.8"/>
					</g>
				</g>
				<g>
					<g>
						<path class="st10" d="M101.6,201.1c0-0.7,0-1.4,0-2"/>
						<path class="st10" d="M104.1,201.4c0-0.9,0-1.7,0-2.6"/>
						<path class="st11" d="M104.1,201.4c0-0.4-2.5-0.1-2.5-0.6s2.5-0.1,2.5-0.7c0-0.6-2.5-0.2-2.5-0.7c0-0.7,2.5,0,2.5-0.8"/>
					</g>
				</g>
				<g>
					<g>
						<line class="st12" x1="101.6" y1="198.1" x2="101.6" y2="196.1"/>
						<line class="st12" x1="104.1" y1="198.5" x2="104" y2="195.8"/>
						<path class="st11" d="M104.1,198.5c0-0.4-2.5-0.1-2.5-0.6s2.5-0.1,2.5-0.7c0-0.6-2.5-0.1-2.5-0.7c0-0.7,2.5,0,2.5-0.8"/>
					</g>
				</g>
				<g>
					<g>
						<line class="st12" x1="101.5" y1="195.2" x2="101.5" y2="193.2"/>
						<line class="st12" x1="104" y1="195.5" x2="104" y2="192.8"/>
						<path class="st11" d="M104,195.5c0-0.4-2.5-0.1-2.5-0.6s2.5-0.2,2.5-0.8s-2.5-0.1-2.6-0.6c-0.1-0.7,2.5,0,2.5-0.8"/>
					</g>
				</g>
				<g>
					<g>
						<path class="st10" d="M101.5,192.3c0-0.7-0.1-1.3-0.1-2"/>
						<path class="st10" d="M103.9,192.5c0-0.9-0.1-1.8-0.1-2.7"/>
						<path class="st11" d="M104,192.5c0-0.4-2.5,0-2.5-0.6c0-0.5,2.5-0.2,2.5-0.8s-2.5-0.1-2.6-0.6c-0.1-0.7,2.5-0.1,2.5-0.9"/>
					</g>
				</g>
				<g>
					<g>
						<path class="st10" d="M101.3,189.3c0-0.7-0.1-1.3-0.1-2"/>
						<path class="st10" d="M103.8,189.5c0-0.9-0.1-1.8-0.2-2.7"/>
						<path class="st11" d="M103.8,189.5c0-0.4-2.5,0-2.6-0.5c0-0.5,2.5-0.2,2.5-0.8s-2.5,0-2.6-0.5c-0.1-0.7,2.5-0.1,2.5-0.9"/>
					</g>
				</g>
				<g>
					<g>
						<line class="st12" x1="101.1" y1="186.4" x2="101" y2="184.4"/>
						<line class="st12" x1="103.6" y1="186.5" x2="103.4" y2="183.9"/>
						<path class="st11" d="M103.7,186.5c0-0.4-2.5,0.1-2.6-0.5c0-0.5,2.5-0.3,2.5-0.9c0-0.6-2.5,0.1-2.6-0.5
							c-0.1-0.7,2.5-0.2,2.4-1"/>
					</g>
				</g>
				<g>
					<g>
						<line class="st12" x1="100.9" y1="183.5" x2="100.7" y2="181.5"/>
						<line class="st12" x1="103.4" y1="183.6" x2="103.1" y2="180.9"/>
						<path class="st11" d="M103.4,183.6c0-0.4-2.5,0.1-2.6-0.4s2.5-0.4,2.5-1c-0.1-0.6-2.5,0.1-2.6-0.4c-0.1-0.7,2.5-0.3,2.4-1.1"
							/>
					</g>
				</g>
				<g>
					<g>
						<line class="st12" x1="100.6" y1="180.5" x2="100.3" y2="178.6"/>
						<line class="st12" x1="103.1" y1="180.6" x2="102.7" y2="177.9"/>
						<path class="st11" d="M103.1,180.6c-0.1-0.4-2.5,0.2-2.6-0.3s2.5-0.4,2.4-1s-2.5,0.2-2.6-0.3c-0.1-0.7,2.5-0.3,2.4-1.1"/>
					</g>
				</g>
				<g>
					<g>
						<line class="st12" x1="100.1" y1="177.7" x2="99.8" y2="175.7"/>
						<path class="st10" d="M102.6,177.6c-0.1-0.9-0.3-1.8-0.5-2.6"/>
						<path class="st11" d="M102.6,177.6c-0.1-0.4-2.5,0.3-2.6-0.2s2.5-0.5,2.4-1.1s-2.5,0.3-2.6-0.2c-0.2-0.7,2.5-0.4,2.3-1.2"/>
					</g>
				</g>
				<g>
					<g>
						<line class="st12" x1="99.6" y1="174.8" x2="99.2" y2="172.8"/>
						<path class="st10" d="M102.1,174.6c-0.2-0.9-0.4-1.8-0.6-2.6"/>
						<path class="st11" d="M102.1,174.6c-0.1-0.4-2.5,0.4-2.6-0.1s2.5-0.6,2.3-1.2c-0.1-0.6-2.5,0.4-2.6-0.2
							c-0.2-0.7,2.5-0.5,2.3-1.3"/>
					</g>
				</g>
				<g>
					<g>
						<path class="st10" d="M99,171.9c-0.1-0.7-0.3-1.3-0.5-1.9"/>
						<path class="st10" d="M101.5,171.7c-0.2-0.9-0.4-1.7-0.6-2.6"/>
						<path class="st11" d="M101.5,171.7c-0.1-0.4-2.5,0.4-2.6-0.1s2.5-0.7,2.3-1.3c-0.1-0.6-2.5,0.4-2.6-0.1
							c-0.2-0.6,2.4-0.6,2.3-1.4"/>
					</g>
				</g>
				<g>
					<g>
						<path class="st10" d="M98.3,169.1c-0.2-0.6-0.3-1.3-0.5-1.9"/>
						<path class="st10" d="M100.8,168.8c-0.2-0.9-0.5-1.7-0.7-2.6"/>
						<path class="st11" d="M100.8,168.8c-0.1-0.4-2.5,0.5-2.6,0s2.4-0.8,2.3-1.3c-0.2-0.6-2.5,0.5-2.6,0c-0.2-0.6,2.4-0.7,2.2-1.4"
							/>
					</g>
				</g>
				<g>
					<g>
						<path class="st10" d="M97.5,166.3c-0.2-0.6-0.4-1.3-0.6-1.9"/>
						<path class="st10" d="M100,165.9c-0.2-0.9-0.5-1.7-0.8-2.6"/>
						<path class="st11" d="M100,165.9c-0.1-0.4-2.5,0.6-2.6,0.1s2.4-0.8,2.2-1.4c-0.2-0.6-2.5,0.6-2.6,0.1
							c-0.2-0.6,2.4-0.7,2.2-1.5"/>
					</g>
				</g>
				<g>
					<g>
						<line class="st12" x1="96.6" y1="163.4" x2="96" y2="161.5"/>
						<path class="st10" d="M99.1,163c-0.3-0.8-0.5-1.7-0.8-2.5"/>
						<path class="st11" d="M99.1,163c-0.1-0.3-2.4,0.6-2.6,0.1s2.4-0.9,2.2-1.5c-0.2-0.6-2.4,0.6-2.6,0.1c-0.3-0.6,2.4-0.8,2.2-1.5
							"/>
					</g>
				</g>
				<g>
					<g>
						<line class="st12" x1="95.7" y1="160.7" x2="95.1" y2="158.7"/>
						<line class="st12" x1="98.2" y1="160.2" x2="97.3" y2="157.7"/>
						<path class="st11" d="M98.2,160.2c-0.1-0.3-2.4,0.7-2.6,0.2s2.4-0.9,2.2-1.5c-0.2-0.6-2.4,0.7-2.6,0.2
							c-0.3-0.6,2.4-0.8,2.1-1.5"/>
					</g>
				</g>
				<g>
					<g>
						<line class="st12" x1="94.8" y1="157.9" x2="94.1" y2="156"/>
						<line class="st12" x1="97.2" y1="157.4" x2="96.3" y2="154.9"/>
						<path class="st11" d="M97.2,157.4c-0.1-0.3-2.4,0.7-2.6,0.2s2.4-0.9,2.2-1.5c-0.2-0.6-2.4,0.7-2.6,0.2
							c-0.3-0.6,2.4-0.8,2.1-1.6"/>
					</g>
				</g>
				<g>
					<g>
						<line class="st12" x1="93.8" y1="155.1" x2="93.1" y2="153.2"/>
						<line class="st12" x1="96.2" y1="154.6" x2="95.3" y2="152.1"/>
						<path class="st11" d="M96.2,154.6c-0.1-0.3-2.4,0.7-2.6,0.3c-0.2-0.5,2.4-1,2.1-1.5c-0.2-0.6-2.4,0.7-2.6,0.2
							c-0.3-0.6,2.4-0.8,2.1-1.6"/>
					</g>
				</g>
				<g>
					<g>
						<line class="st12" x1="92.7" y1="152.3" x2="92" y2="150.4"/>
						<line class="st12" x1="95.2" y1="151.8" x2="94.2" y2="149.3"/>
						<path class="st11" d="M95.2,151.8c-0.1-0.3-2.4,0.8-2.6,0.3s2.3-1,2.1-1.6c-0.2-0.6-2.4,0.7-2.6,0.2c-0.3-0.6,2.4-0.9,2.1-1.6
							"/>
					</g>
				</g>
				<g>
					<g>
						<line class="st12" x1="91.7" y1="149.5" x2="91" y2="147.7"/>
						<line class="st12" x1="94.1" y1="149" x2="93.2" y2="146.5"/>
						<path class="st11" d="M94.1,149c-0.1-0.3-2.4,0.8-2.6,0.3s2.3-1,2.1-1.6c-0.2-0.6-2.4,0.7-2.6,0.2c-0.3-0.6,2.4-0.9,2.1-1.6"
							/>
					</g>
				</g>
				<g>
					<g>
						<line class="st12" x1="90.6" y1="146.8" x2="89.9" y2="144.9"/>
						<line class="st12" x1="93.1" y1="146.2" x2="92.1" y2="143.7"/>
						<path class="st11" d="M93.1,146.2c-0.1-0.3-2.4,0.8-2.6,0.3s2.3-1,2.1-1.6c-0.2-0.6-2.4,0.7-2.6,0.3c-0.3-0.6,2.4-0.9,2.1-1.6
							"/>
					</g>
				</g>
				<g>
					<g>
						<line class="st12" x1="89.6" y1="144" x2="88.8" y2="142.1"/>
						<line class="st12" x1="92" y1="143.4" x2="91.1" y2="141"/>
						<path class="st11" d="M92,143.4c-0.1-0.3-2.4,0.8-2.6,0.3s2.3-1,2.1-1.6c-0.2-0.6-2.4,0.8-2.6,0.3c-0.3-0.6,2.4-0.9,2.1-1.6"
							/>
					</g>
				</g>
			</g>
		</g>
	</g>
</g>
<g>
	<g>
		<g>
			<g>
				<g>
					<g>
						<line class="st12" x1="300.5" y1="149.9" x2="300.5" y2="151.9"/>
						<line class="st12" x1="298.1" y1="149.5" x2="298" y2="152.1"/>
						<path class="st11" d="M298.1,149.5c0,0.4,2.5,0.1,2.5,0.6s-2.5,0.1-2.6,0.7c0,0.6,2.5,0.2,2.5,0.7c0,0.7-2.5-0.1-2.5,0.7"/>
					</g>
				</g>
				<g>
					<g>
						<path class="st10" d="M300.5,152.8c0,0.7-0.1,1.4-0.1,2"/>
						<path class="st10" d="M298,152.4c0,0.9-0.1,1.7-0.1,2.6"/>
						<path class="st11" d="M298,152.4c0,0.4,2.5,0.2,2.5,0.7s-2.5,0-2.6,0.6c0,0.6,2.5,0.3,2.5,0.8c0,0.7-2.5-0.1-2.6,0.6"/>
					</g>
				</g>
				<g>
					<g>
						<path class="st10" d="M300.4,155.8c0,0.7-0.1,1.4-0.1,2"/>
						<path class="st10" d="M297.9,155.3c0,0.9-0.1,1.7-0.2,2.6"/>
						<path class="st11" d="M297.9,155.3c0,0.4,2.5,0.3,2.5,0.8s-2.5-0.1-2.6,0.5s2.5,0.3,2.5,0.9c0,0.7-2.5-0.2-2.6,0.5"/>
					</g>
				</g>
				<g>
					<g>
						<path class="st10" d="M300.1,158.8c0,0.7-0.1,1.4-0.2,2"/>
						<path class="st10" d="M297.7,158.2c-0.1,0.9-0.2,1.7-0.3,2.6"/>
						<path class="st11" d="M297.7,158.2c0,0.4,2.5,0.4,2.5,0.9s-2.5-0.2-2.6,0.4c-0.1,0.6,2.5,0.4,2.4,1c-0.1,0.7-2.5-0.3-2.6,0.4"
							/>
					</g>
				</g>
				<g>
					<g>
						<path class="st10" d="M299.8,161.7c-0.1,0.7-0.2,1.3-0.3,2"/>
						<path class="st10" d="M297.4,161c-0.1,0.9-0.2,1.7-0.4,2.5"/>
						<path class="st11" d="M297.4,161c0,0.3,2.5,0.5,2.4,1s-2.5-0.3-2.6,0.3s2.5,0.6,2.4,1.1c-0.1,0.7-2.5-0.5-2.6,0.3"/>
					</g>
				</g>
				<g>
					<g>
						<path class="st10" d="M299.3,164.7c-0.1,0.7-0.3,1.3-0.4,2"/>
						<path class="st10" d="M296.9,163.9c-0.1,0.8-0.4,1.7-0.5,2.5"/>
						<path class="st11" d="M296.9,163.9c-0.1,0.3,2.5,0.6,2.4,1.1s-2.5-0.4-2.6,0.1c-0.1,0.6,2.4,0.7,2.3,1.2
							c-0.1,0.7-2.4-0.6-2.6,0.1"/>
					</g>
				</g>
				<g>
					<g>
						<line class="st12" x1="298.6" y1="167.6" x2="298.1" y2="169.6"/>
						<path class="st10" d="M296.3,166.7c-0.2,0.8-0.4,1.6-0.7,2.5"/>
						<path class="st11" d="M296.3,166.7c-0.1,0.3,2.4,0.7,2.3,1.3c-0.1,0.5-2.5-0.6-2.6,0c-0.2,0.6,2.4,0.8,2.3,1.4
							c-0.2,0.7-2.4-0.7-2.6,0"/>
					</g>
				</g>
				<g>
					<g>
						<path class="st10" d="M297.8,170.5c-0.2,0.6-0.4,1.3-0.6,1.9"/>
						<path class="st10" d="M295.5,169.4c-0.3,0.8-0.5,1.6-0.8,2.5"/>
						<path class="st11" d="M295.5,169.4c-0.1,0.3,2.4,0.9,2.2,1.4c-0.2,0.5-2.5-0.7-2.6-0.1c-0.2,0.6,2.3,0.9,2.2,1.4
							c-0.2,0.7-2.4-0.8-2.6-0.1"/>
					</g>
				</g>
				<g>
					<g>
						<line class="st12" x1="296.9" y1="173.3" x2="296.3" y2="175.2"/>
						<line class="st12" x1="294.7" y1="172.2" x2="293.8" y2="174.6"/>
						<path class="st11" d="M294.7,172.2c-0.1,0.3,2.4,0.9,2.2,1.4c-0.2,0.5-2.4-0.7-2.6-0.2c-0.2,0.6,2.3,1,2.2,1.5
							c-0.2,0.7-2.4-0.8-2.6-0.1"/>
					</g>
				</g>
				<g>
					<g>
						<line class="st12" x1="296" y1="176.1" x2="295.3" y2="177.9"/>
						<line class="st12" x1="293.7" y1="174.9" x2="292.9" y2="177.4"/>
						<path class="st11" d="M293.7,174.9c-0.1,0.3,2.4,0.9,2.2,1.4c-0.2,0.5-2.4-0.7-2.6-0.1c-0.2,0.6,2.3,0.9,2.2,1.5
							c-0.2,0.7-2.4-0.8-2.6-0.1"/>
					</g>
				</g>
				<g>
					<g>
						<line class="st12" x1="295.1" y1="178.8" x2="294.5" y2="180.7"/>
						<line class="st12" x1="292.8" y1="177.7" x2="292" y2="180.3"/>
						<path class="st11" d="M292.8,177.7c-0.1,0.3,2.4,0.9,2.2,1.4c-0.2,0.5-2.5-0.7-2.6-0.1c-0.2,0.6,2.4,0.9,2.2,1.4
							c-0.2,0.7-2.4-0.8-2.6,0"/>
					</g>
				</g>
				<g>
					<g>
						<line class="st12" x1="294.2" y1="181.6" x2="293.6" y2="183.5"/>
						<line class="st12" x1="291.9" y1="180.6" x2="291.2" y2="183.1"/>
						<path class="st11" d="M291.9,180.5c-0.1,0.3,2.4,0.8,2.2,1.3c-0.1,0.5-2.5-0.6-2.6,0c-0.2,0.6,2.4,0.9,2.3,1.4
							c-0.2,0.7-2.4-0.7-2.6,0"/>
					</g>
				</g>
				<g>
					<g>
						<line class="st12" x1="293.4" y1="184.4" x2="292.9" y2="186.3"/>
						<line class="st12" x1="291.1" y1="183.4" x2="290.4" y2="186"/>
						<path class="st11" d="M291.1,183.4c-0.1,0.4,2.4,0.8,2.3,1.3s-2.5-0.6-2.6,0c-0.2,0.6,2.4,0.8,2.3,1.3
							c-0.1,0.7-2.4-0.7-2.6,0.1"/>
					</g>
				</g>
				<g>
					<g>
						<line class="st12" x1="292.7" y1="187.2" x2="292.2" y2="189.1"/>
						<line class="st12" x1="290.4" y1="186.3" x2="289.7" y2="188.8"/>
						<path class="st11" d="M290.3,186.2c-0.1,0.4,2.4,0.7,2.3,1.2s-2.5-0.5-2.6,0.1s2.4,0.7,2.3,1.3c-0.1,0.7-2.4-0.6-2.6,0.2"/>
					</g>
				</g>
				<g>
					<g>
						<path class="st10" d="M292,190c-0.2,0.6-0.3,1.3-0.4,1.9"/>
						<path class="st10" d="M289.7,189.1c-0.2,0.9-0.4,1.7-0.6,2.6"/>
						<path class="st11" d="M289.7,189.1c-0.1,0.4,2.4,0.7,2.3,1.2s-2.5-0.5-2.6,0.1s2.4,0.7,2.3,1.2c-0.1,0.7-2.4-0.6-2.6,0.2"/>
					</g>
				</g>
				<g>
					<g>
						<line class="st12" x1="291.4" y1="192.8" x2="291" y2="194.8"/>
						<line class="st12" x1="289" y1="192" x2="288.5" y2="194.6"/>
						<path class="st11" d="M289,192c-0.1,0.4,2.4,0.6,2.3,1.1s-2.5-0.4-2.6,0.2c-0.1,0.6,2.4,0.7,2.4,1.2c-0.1,0.7-2.5-0.5-2.6,0.2
							"/>
					</g>
				</g>
				<g>
					<g>
						<line class="st12" x1="290.8" y1="195.7" x2="290.4" y2="197.7"/>
						<line class="st12" x1="288.5" y1="194.9" x2="287.9" y2="197.5"/>
						<path class="st11" d="M288.4,194.9c-0.1,0.4,2.5,0.6,2.4,1.1s-2.5-0.4-2.6,0.2c-0.1,0.6,2.4,0.7,2.4,1.2
							c-0.1,0.7-2.5-0.5-2.6,0.2"/>
					</g>
				</g>
				<g>
					<g>
						<line class="st12" x1="290.2" y1="198.6" x2="289.9" y2="200.5"/>
						<line class="st12" x1="287.9" y1="197.8" x2="287.4" y2="200.3"/>
						<path class="st11" d="M287.9,197.8c-0.1,0.4,2.5,0.6,2.4,1.1s-2.5-0.4-2.6,0.2c-0.1,0.6,2.4,0.6,2.4,1.2
							c-0.1,0.7-2.5-0.5-2.6,0.2"/>
					</g>
				</g>
				<g>
					<g>
						<line class="st12" x1="289.7" y1="201.4" x2="289.3" y2="203.4"/>
						<line class="st12" x1="287.3" y1="200.6" x2="286.8" y2="203.2"/>
						<path class="st11" d="M287.3,200.6c-0.1,0.4,2.5,0.6,2.4,1.1s-2.5-0.4-2.6,0.2c-0.1,0.6,2.4,0.6,2.4,1.2
							c-0.1,0.7-2.5-0.5-2.6,0.3"/>
					</g>
				</g>
				<g>
					<g>
						<line class="st12" x1="289.1" y1="204.3" x2="288.8" y2="206.3"/>
						<path class="st10" d="M286.8,203.5c-0.2,0.9-0.3,1.7-0.5,2.6"/>
						<path class="st11" d="M286.8,203.5c-0.1,0.4,2.5,0.6,2.4,1.1s-2.5-0.4-2.6,0.2c-0.1,0.6,2.5,0.6,2.4,1.1
							c-0.1,0.7-2.5-0.4-2.6,0.3"/>
					</g>
				</g>
				<g>
					<g>
						<line class="st12" x1="288.6" y1="207.2" x2="288.3" y2="209.1"/>
						<path class="st10" d="M286.3,206.4c-0.2,0.9-0.3,1.7-0.4,2.6"/>
						<path class="st11" d="M286.2,206.4c-0.1,0.4,2.5,0.5,2.4,1s-2.5-0.3-2.6,0.3s2.5,0.5,2.4,1.1c-0.1,0.7-2.5-0.4-2.6,0.4"/>
					</g>
				</g>
				<g>
					<g>
						<line class="st12" x1="288.2" y1="210" x2="288" y2="212"/>
						<path class="st10" d="M285.8,209.3c-0.1,0.9-0.2,1.7-0.3,2.6"/>
						<path class="st11" d="M285.8,209.3c-0.1,0.4,2.5,0.5,2.4,1s-2.5-0.3-2.6,0.3s2.5,0.5,2.4,1c-0.1,0.7-2.5-0.3-2.6,0.4"/>
					</g>
				</g>
				<g>
					<g>
						<line class="st12" x1="287.8" y1="212.9" x2="287.6" y2="214.9"/>
						<line class="st12" x1="285.4" y1="212.3" x2="285.1" y2="214.9"/>
						<path class="st11" d="M285.4,212.3c0,0.4,2.5,0.4,2.4,0.9s-2.5-0.2-2.6,0.4c-0.1,0.6,2.5,0.4,2.5,0.9c0,0.7-2.5-0.3-2.6,0.5"
							/>
					</g>
				</g>
				<g>
					<g>
						<line class="st12" x1="287.6" y1="215.8" x2="287.4" y2="217.7"/>
						<line class="st12" x1="285.1" y1="215.2" x2="284.9" y2="217.9"/>
						<path class="st11" d="M285.1,215.2c0,0.4,2.5,0.3,2.5,0.9c0,0.5-2.5-0.1-2.6,0.5c0,0.6,2.5,0.3,2.5,0.9c0,0.7-2.5-0.2-2.6,0.6
							"/>
					</g>
				</g>
				<g>
					<g>
						<line class="st12" x1="287.4" y1="218.7" x2="287.3" y2="220.6"/>
						<path class="st10" d="M284.9,218.2c0,0.9-0.1,1.8-0.1,2.7"/>
						<path class="st11" d="M284.9,218.2c0,0.4,2.5,0.3,2.5,0.8s-2.5,0-2.6,0.6c0,0.6,2.5,0.2,2.5,0.8c0,0.7-2.5-0.1-2.5,0.7"/>
					</g>
				</g>
				<g>
					<g>
						<path class="st10" d="M287.3,221.5c0,0.7,0,1.3,0,2"/>
						<path class="st10" d="M284.8,221.2c0,0.9,0,1.8,0,2.7"/>
						<path class="st11" d="M284.8,221.2c0,0.4,2.5,0.1,2.5,0.7c0,0.5-2.5,0.1-2.5,0.7c0,0.6,2.5,0.1,2.6,0.6c0.1,0.7-2.5,0-2.5,0.8
							"/>
					</g>
				</g>
				<g>
					<g>
						<path class="st10" d="M287.4,224.4c0,0.7,0.1,1.3,0.1,1.9"/>
						<path class="st10" d="M284.9,224.2c0,0.9,0.1,1.8,0.2,2.7"/>
						<path class="st11" d="M284.8,224.2c0,0.4,2.5,0,2.6,0.5c0,0.5-2.5,0.2-2.5,0.8s2.5,0,2.6,0.5c0.1,0.7-2.5,0.2-2.4,1"/>
					</g>
				</g>
				<g>
					<g>
						<path class="st10" d="M287.6,227.2c0,0.6,0.2,1.3,0.3,1.9"/>
						<path class="st10" d="M285.1,227.2c0.1,0.9,0.2,1.8,0.4,2.7"/>
						<path class="st11" d="M285.1,227.2c0,0.4,2.5-0.1,2.6,0.4s-2.5,0.4-2.4,1s2.5-0.2,2.6,0.3c0.1,0.6-2.5,0.4-2.4,1.2"/>
					</g>
				</g>
				<g>
					<g>
						<path class="st10" d="M288,230c0.1,0.6,0.3,1.2,0.4,1.9"/>
						<path class="st10" d="M285.5,230.1c0.1,0.9,0.4,1.8,0.6,2.7"/>
						<path class="st11" d="M285.5,230.1c0.1,0.4,2.5-0.3,2.6,0.2s-2.5,0.6-2.3,1.2c0.1,0.6,2.5-0.4,2.6,0.1
							c0.2,0.6-2.4,0.6-2.3,1.4"/>
					</g>
				</g>
			</g>
		</g>
	</g>
</g>
<path class="st14" d="M150.1,110c0,0,11.8,26.9,38.6,29.4"/>
<path class="st9" d="M210.1,126.1c-3,1.3-9.1,2.3-11.4,4.7c0,0,0.1,0.6-2.5,0.9c-1.7,1.1-4.6,5.4-5.2,6.2c-0.5,0.5,1.9-2.6,3.2-4.3
	c0.3-0.4-1.3-2.4-2.2-2.6c-26.6-7.2-28.3-14.5-31.7-22.5c5.1,4.2,16,8,32.5,7.5c22.4-0.7,36.1-5.9,36.1-5.9
	C228.9,113,222.3,121,210.1,126.1"/>
<path class="st15" d="M190.1,138.9c-1.1,0,0.2,51.8,0.2,51.8l5.7-0.1h5.4c-0.2-7.3,0.6-16.1-0.4-41.3v-11.1"/>
<path class="st15" d="M190.1,138.9c0.4-3,4.3-7.4,17.7-11.5l2.5-1c15.9-6.7,22.9-20.2,17.9-23.3"/>
<path class="st15" d="M161.1,103.1c-5,3.1,1.5,16.6,17.4,23.3l1.2,0.5c8.1,2.7,12.9,4,14.8,7.2"/>
<path class="st14" d="M200,138.5c0.5,16.4,0.1,38.5,0.3,51H196l-4.7,0.3c-0.8-6.7-0.2-30.5-0.7-48.8l0.2-1.2c0-0.5,0-0.9,0.1-1.3"/>
<line class="st16" x1="191" y1="186.5" x2="200.9" y2="186.2"/>
<path class="st16" d="M196.8,177.7c0,0,1.3,0,1.6,0.3s1.1-0.6,1.1-0.6l-2.8,2.4"/>
<path class="st17" d="M195,175.7c1.4,0,2.6,1.2,2.6,2.7s-1.1,2.8-2.5,2.8s-2.6-1.2-2.6-2.7S193.6,175.7,195,175.7z"/>
<line class="st18" x1="194.6" y1="177.8" x2="195.8" y2="179.2"/>
<path d="M195.5,179.4c0.1,0.2,0.4,0.2,0.5,0c0.2-0.1,0.2-0.4,0-0.5c-0.1-0.2-0.4-0.2-0.5,0C195.4,179,195.4,179.2,195.5,179.4z"/>
<path d="M194.8,177.6c-0.1-0.2-0.4-0.2-0.5,0c-0.2,0.1-0.2,0.4,0,0.5c0.1,0.2,0.4,0.2,0.5,0C194.9,177.9,195,177.7,194.8,177.6z"/>
<line class="st19" x1="194.6" y1="179.1" x2="195.7" y2="177.7"/>
<path d="M195.9,177.9c0.1-0.1,0.1-0.4-0.1-0.5c-0.1-0.1-0.4-0.1-0.5,0.1c-0.1,0.1-0.1,0.4,0.1,0.5S195.8,178.1,195.9,177.9z"/>
<path d="M194.4,178.9c-0.1,0.1-0.1,0.4,0.1,0.5c0.1,0.1,0.4,0.1,0.5-0.1c0.1-0.1,0.1-0.4-0.1-0.5
	C194.7,178.8,194.5,178.8,194.4,178.9z"/>
<path class="st20" d="M196.5,178.4c0,0.8-0.6,1.5-1.4,1.5c-0.8,0-1.4-0.7-1.4-1.5s0.6-1.5,1.4-1.5
	C195.9,177,196.5,177.6,196.5,178.4z"/>
<path class="st16" d="M196.3,159.5c0,0,1.3,0,1.6,0.3s1.1-0.6,1.1-0.6l-2.8,2.4"/>
<path class="st17" d="M194.6,157.4c1.4,0,2.6,1.2,2.6,2.7s-1.1,2.8-2.5,2.8s-2.6-1.2-2.6-2.7C192,158.7,193.2,157.5,194.6,157.4z"/>
<line class="st18" x1="194.1" y1="159.5" x2="195.3" y2="160.9"/>
<path d="M195,161.2c0.1,0.2,0.4,0.2,0.5,0c0.2-0.1,0.2-0.4,0-0.5c-0.1-0.2-0.4-0.2-0.5,0C194.9,160.8,194.9,161,195,161.2z"/>
<path d="M194.4,159.3c-0.1-0.2-0.4-0.2-0.5,0c-0.2,0.1-0.2,0.4,0,0.5c0.1,0.2,0.4,0.2,0.5,0C194.5,159.7,194.5,159.5,194.4,159.3z"
	/>
<line class="st19" x1="194.2" y1="160.9" x2="195.2" y2="159.5"/>
<path d="M195.5,159.7c0.1-0.1,0.1-0.4-0.1-0.5c-0.1-0.1-0.4-0.1-0.5,0.1c-0.1,0.1-0.1,0.4,0.1,0.5
	C195.2,159.9,195.4,159.8,195.5,159.7z"/>
<path d="M193.9,160.7c-0.1,0.1-0.1,0.4,0.1,0.5c0.1,0.1,0.4,0.1,0.5-0.1c0.1-0.1,0.1-0.4-0.1-0.5C194.2,160.5,194,160.5,193.9,160.7
	z"/>
<path class="st20" d="M196,160.2c0,0.8-0.6,1.5-1.4,1.5c-0.8,0-1.4-0.7-1.4-1.5s0.6-1.5,1.4-1.5S196,159.4,196,160.2z"/>
<path class="st14" d="M201.9,138.9c26.5-3.9,38.1-27.2,38.1-27.2"/>
<path class="st16" d="M196.3,141.9c0,0,1.3,0,1.6,0.3s1.1-0.6,1.1-0.6l-2.8,2.4"/>
<path class="st17" d="M194.6,139.9c1.4,0,2.6,1.2,2.6,2.7s-1.1,2.8-2.5,2.8s-2.6-1.2-2.6-2.7C192,141.2,193.2,139.9,194.6,139.9z"/>
<line class="st18" x1="194.1" y1="142" x2="195.3" y2="143.4"/>
<path d="M195,143.6c0.1,0.2,0.4,0.2,0.5,0c0.2-0.1,0.2-0.4,0-0.5c-0.1-0.2-0.4-0.2-0.5,0C194.9,143.2,194.9,143.4,195,143.6z"/>
<path d="M194.4,141.8c-0.1-0.2-0.4-0.2-0.5,0c-0.2,0.1-0.2,0.4,0,0.5c0.1,0.2,0.4,0.2,0.5,0S194.5,141.9,194.4,141.8z"/>
<line class="st19" x1="194.2" y1="143.3" x2="195.2" y2="141.9"/>
<path d="M195.5,142.1c0.1-0.1,0.1-0.4-0.1-0.5c-0.1-0.1-0.4-0.1-0.5,0.1c-0.1,0.1-0.1,0.4,0.1,0.5
	C195.2,142.3,195.4,142.3,195.5,142.1z"/>
<path d="M193.9,143.1c-0.1,0.1-0.1,0.4,0.1,0.5c0.1,0.1,0.4,0.1,0.5-0.1c0.1-0.1,0.1-0.4-0.1-0.5C194.2,143,194,143,193.9,143.1z"/>
<path class="st20" d="M196.1,142.6c0,0.8-0.6,1.5-1.4,1.5c-0.8,0-1.4-0.7-1.4-1.5s0.6-1.5,1.4-1.5
	C195.4,141.2,196.1,141.8,196.1,142.6z"/>
<path class="st21" d="M188.9,138.4C162.8,135.2,151,109,151,109l5.8-3.6l3.9-3.7c0,0,1-0.5,1.6-0.2c3.5,1.4,15.9,8.6,30.4,7.7
	c15-1,30.6-5.3,35.2-6.6c0.8-0.2,2,0.5,2,0.5l3.6,3.5l5.9,4.1c0,0-11.6,23.4-38.1,27.2l-11.2,0.5L188.9,138.4L188.9,138.4z"/>
<path class="st22" d="M104.4,429.5c0.9-0.4,12.1-6.7,19.1-4.8c7,1.9,33.9,2,33.9,2c37.4,4.4,40.2,6.1,40.2,6.1h-30.9
	c0,0-22.7,3.1-31.6,1.4C126.2,432.5,104.4,429.5,104.4,429.5z"/>
<g>
	<g>
		<g>
			<path id="SVGID_00000116928178022763645610000009429371393623139489_" class="st23" d="M210.4,126.2c-3,1.3-9.1,2.3-11.4,4.7
				c0,0,0.1,0.6-2.5,0.9c-1.7,1.1-4.6,5.4-5.2,6.2c-0.5,0.5,1.9-2.6,3.2-4.3c0.3-0.4-1.3-2.4-2.2-2.6c-26.6-7.2-28.3-14.5-31.7-22.5
				c5.1,4.2,16,8,32.5,7.5c22.4-0.7,36.1-5.9,36.1-5.9C229.1,113.1,222.5,121.1,210.4,126.2"/>
		</g>
		<g>
			<defs>
				<path id="SVGID_00000101789589546060379210000012945314368442763671_" d="M210.4,126.2c-3,1.3-9.1,2.3-11.4,4.7
					c0,0,0.1,0.6-2.5,0.9c-1.7,1.1-4.6,5.4-5.2,6.2c-0.5,0.5,1.9-2.6,3.2-4.3c0.3-0.4-1.3-2.4-2.2-2.6
					c-26.6-7.2-28.3-14.5-31.7-22.5c5.1,4.2,16,8,32.5,7.5c22.4-0.7,36.1-5.9,36.1-5.9C229.1,113.1,222.5,121.1,210.4,126.2"/>
			</defs>
			<clipPath id="SVGID_00000129912674137532001260000004865494879004505002_">
				<use xlink:href="#SVGID_00000101789589546060379210000012945314368442763671_"  style="overflow:visible;"/>
			</clipPath>
			
				<path style="clip-path:url(#SVGID_00000129912674137532001260000004865494879004505002_);fill:#999999;stroke:#231F20;stroke-width:0.4634;stroke-linejoin:round;stroke-miterlimit:10;" d="
				M229.7,106.5c0.8,0.7-8.2,29.2-35.1,29.2c-27,0-34.6-28.1-34.6-28.1L229.7,106.5z"/>
		</g>
	</g>
</g>
<path class="st25" d="M160.5,109.3c0.8,1.3,10.2,7.5,31.3,6.8c30.2-1,35.9-6.9,35.9-6.9"/>
<path class="st26" d="M160.7,109.1c0.8,1.3,11.1,7.7,32.2,7c30.2-1,35.9-6.9,35.9-6.9"/>
<g>
	<path class="st23" d="M81.2,420.4c-7.8,0-10.4,2.3-13.9,3.7c-3.6,1.4-10.7,5-10.7,5c-9.5,4.8-7.6,6.2,5.8,3.2
		c15.6-3.6,16-2.8,22.2-5.4c0.4-0.2-0.7-5.9-0.7-5.9L81.2,420.4z"/>
	<g>
		<path d="M81.6,419.6c-8.8,0.2-16.9,4.8-24.6,8.7c-1.2,0.6-11,5.7-5.1,6.4c4.9,0.6,11.3-1.9,16-2.9c3.7-0.8,7.4-1.4,11.1-2.3
			c1.6-0.4,5.2-1,6.2-2.4c1.1-1.6-0.2-5-0.5-6.7c0-0.1-0.1-0.2-0.2-0.2C83.6,420,82.7,419.8,81.6,419.6c-0.6-0.2-1.8,1.4-1,1.6
			c2.8,0.6,2.8,0.8,3.2,3.8c0.2,2,0.6,1.1-0.9,2c-0.7,0.4-1.8,0.6-2.6,0.8c-6.3,1.7-12.9,2.7-19.3,4.1c-2,0.4-4.1,0.9-6.1,1.1
			c-1.1,0.1-3.1,0.6-2.9-0.6c0.3-1.2,6.1-3.4,7.5-4c6.8-3.3,13.6-7,21.3-7.2C81.4,421.2,82.5,419.5,81.6,419.6z"/>
	</g>
</g>
<path class="st14" d="M239.2,109.4c0,0-11.6,23.4-38.1,27.2l-9.3,0.7"/>
<path class="st14" d="M151.9,108.2c0,0,11.8,26.9,38.6,29.4"/>
</svg>
